<?xml version="1.0" encoding="UTF-8"?>
<svg xmlns="http://www.w3.org/2000/svg" viewBox="0 0 320 80" role="img">
  <title>Cincinnati seasonal climate ribbon</title>
  <path d="M10.0 28.8 L11.6 28.4 L11.6 51.6 L10.0 51.2 Z" fill="rgb(116, 180, 149)"/><path d="M11.6 28.4 L13.3 28.1 L13.3 51.9 L11.6 51.6 Z" fill="rgb(114, 180, 150)"/><path d="M13.3 28.1 L14.9 27.7 L14.9 52.3 L13.3 51.9 Z" fill="rgb(112, 180, 151)"/><path d="M14.9 27.7 L16.6 27.4 L16.6 52.6 L14.9 52.3 Z" fill="rgb(110, 179, 152)"/><path d="M16.6 27.4 L18.2 27.2 L18.2 52.8 L16.6 52.6 Z" fill="rgb(109, 179, 153)"/><path d="M18.2 27.2 L19.9 27.0 L19.9 53.0 L18.2 52.8 Z" fill="rgb(107, 179, 153)"/><path d="M19.9 27.0 L21.5 26.9 L21.5 53.1 L19.9 53.0 Z" fill="rgb(106, 179, 154)"/><path d="M21.5 26.9 L23.2 26.9 L23.2 53.1 L21.5 53.1 Z" fill="rgb(106, 179, 154)"/><path d="M23.2 26.9 L24.8 27.0 L24.8 53.0 L23.2 53.1 Z" fill="rgb(106, 179, 154)"/><path d="M24.8 27.0 L26.4 27.2 L26.4 52.8 L24.8 53.0 Z" fill="rgb(106, 179, 154)"/><path d="M26.4 27.2 L28.1 27.5 L28.1 52.5 L26.4 52.8 Z" fill="rgb(107, 179, 153)"/><path d="M28.1 27.5 L29.7 27.8 L29.7 52.2 L28.1 52.5 Z" fill="rgb(108, 179, 153)"/><path d="M29.7 27.8 L31.4 28.3 L31.4 51.7 L29.7 52.2 Z" fill="rgb(110, 179, 152)"/><path d="M31.4 28.3 L33.0 28.7 L33.0 51.3 L31.4 51.7 Z" fill="rgb(111, 180, 151)"/><path d="M33.0 28.7 L34.7 29.2 L34.7 50.8 L33.0 51.3 Z" fill="rgb(113, 180, 151)"/><path d="M34.7 29.2 L36.3 29.7 L36.3 50.3 L34.7 50.8 Z" fill="rgb(115, 180, 150)"/><path d="M36.3 29.7 L37.9 30.2 L37.9 49.8 L36.3 50.3 Z" fill="rgb(117, 180, 149)"/><path d="M37.9 30.2 L39.6 30.6 L39.6 49.4 L37.9 49.8 Z" fill="rgb(119, 181, 148)"/><path d="M39.6 30.6 L41.2 31.0 L41.2 49.0 L39.6 49.4 Z" fill="rgb(121, 181, 147)"/><path d="M41.2 31.0 L42.9 31.4 L42.9 48.6 L41.2 49.0 Z" fill="rgb(123, 181, 147)"/><path d="M42.9 31.4 L44.5 31.6 L44.5 48.4 L42.9 48.6 Z" fill="rgb(124, 181, 146)"/><path d="M44.5 31.6 L46.2 31.7 L46.2 48.3 L44.5 48.4 Z" fill="rgb(125, 182, 146)"/><path d="M46.2 31.7 L47.8 31.7 L47.8 48.3 L46.2 48.3 Z" fill="rgb(126, 182, 145)"/><path d="M47.8 31.7 L49.5 31.5 L49.5 48.5 L47.8 48.3 Z" fill="rgb(126, 182, 145)"/><path d="M49.5 31.5 L51.1 31.2 L51.1 48.8 L49.5 48.5 Z" fill="rgb(127, 182, 145)"/><path d="M51.1 31.2 L52.7 30.7 L52.7 49.3 L51.1 48.8 Z" fill="rgb(129, 182, 144)"/><path d="M52.7 30.7 L54.4 30.2 L54.4 49.8 L52.7 49.3 Z" fill="rgb(133, 183, 142)"/><path d="M54.4 30.2 L56.0 29.5 L56.0 50.5 L54.4 49.8 Z" fill="rgb(137, 183, 141)"/><path d="M56.0 29.5 L57.7 28.9 L57.7 51.1 L56.0 50.5 Z" fill="rgb(141, 184, 139)"/><path d="M57.7 28.9 L59.3 28.2 L59.3 51.8 L57.7 51.1 Z" fill="rgb(146, 185, 137)"/><path d="M59.3 28.2 L61.0 27.5 L61.0 52.5 L59.3 51.8 Z" fill="rgb(151, 185, 135)"/><path d="M61.0 27.5 L62.6 26.8 L62.6 53.2 L61.0 52.5 Z" fill="rgb(156, 186, 132)"/><path d="M62.6 26.8 L64.2 26.2 L64.2 53.8 L62.6 53.2 Z" fill="rgb(160, 187, 130)"/><path d="M64.2 26.2 L65.9 25.6 L65.9 54.4 L64.2 53.8 Z" fill="rgb(165, 187, 129)"/><path d="M65.9 25.6 L67.5 25.2 L67.5 54.8 L65.9 54.4 Z" fill="rgb(168, 188, 127)"/><path d="M67.5 25.2 L69.2 24.9 L69.2 55.1 L67.5 54.8 Z" fill="rgb(171, 188, 126)"/><path d="M69.2 24.9 L70.8 24.8 L70.8 55.2 L69.2 55.1 Z" fill="rgb(174, 189, 125)"/><path d="M70.8 24.8 L72.5 24.8 L72.5 55.2 L70.8 55.2 Z" fill="rgb(175, 189, 124)"/><path d="M72.5 24.8 L74.1 24.8 L74.1 55.2 L72.5 55.2 Z" fill="rgb(175, 189, 124)"/><path d="M74.1 24.8 L75.8 24.8 L75.8 55.2 L74.1 55.2 Z" fill="rgb(177, 189, 123)"/><path d="M75.8 24.8 L77.4 24.8 L77.4 55.2 L75.8 55.2 Z" fill="rgb(180, 190, 122)"/><path d="M77.4 24.8 L79.0 24.8 L79.0 55.2 L77.4 55.2 Z" fill="rgb(183, 190, 120)"/><path d="M79.0 24.8 L80.7 24.8 L80.7 55.2 L79.0 55.2 Z" fill="rgb(188, 191, 118)"/><path d="M80.7 24.8 L82.3 24.8 L82.3 55.2 L80.7 55.2 Z" fill="rgb(193, 192, 116)"/><path d="M82.3 24.8 L84.0 24.9 L84.0 55.1 L82.3 55.2 Z" fill="rgb(199, 192, 114)"/><path d="M84.0 24.9 L85.6 24.9 L85.6 55.1 L84.0 55.1 Z" fill="rgb(205, 193, 111)"/><path d="M85.6 24.9 L87.3 24.9 L87.3 55.1 L85.6 55.1 Z" fill="rgb(210, 194, 109)"/><path d="M87.3 24.9 L88.9 24.9 L88.9 55.1 L87.3 55.1 Z" fill="rgb(216, 195, 106)"/><path d="M88.9 24.9 L90.5 24.9 L90.5 55.1 L88.9 55.1 Z" fill="rgb(217, 193, 105)"/><path d="M90.5 24.9 L92.2 24.9 L92.2 55.1 L90.5 55.1 Z" fill="rgb(217, 191, 103)"/><path d="M92.2 24.9 L93.8 24.9 L93.8 55.1 L92.2 55.1 Z" fill="rgb(218, 189, 102)"/><path d="M93.8 24.9 L95.5 24.9 L95.5 55.1 L93.8 55.1 Z" fill="rgb(218, 187, 101)"/><path d="M95.5 24.9 L97.1 24.9 L97.1 55.1 L95.5 55.1 Z" fill="rgb(218, 187, 101)"/><path d="M97.1 24.9 L98.8 24.7 L98.8 55.3 L97.1 55.1 Z" fill="rgb(218, 186, 100)"/><path d="M98.8 24.7 L100.4 24.2 L100.4 55.8 L98.8 55.3 Z" fill="rgb(218, 186, 100)"/><path d="M100.4 24.2 L102.1 23.6 L102.1 56.4 L100.4 55.8 Z" fill="rgb(218, 184, 99)"/><path d="M102.1 23.6 L103.7 22.8 L103.7 57.2 L102.1 56.4 Z" fill="rgb(218, 182, 97)"/><path d="M103.7 22.8 L105.3 21.9 L105.3 58.1 L103.7 57.2 Z" fill="rgb(219, 179, 95)"/><path d="M105.3 21.9 L107.0 21.0 L107.0 59.0 L105.3 58.1 Z" fill="rgb(219, 176, 93)"/><path d="M107.0 21.0 L108.6 20.0 L108.6 60.0 L107.0 59.0 Z" fill="rgb(219, 172, 91)"/><path d="M108.6 20.0 L110.3 19.0 L110.3 61.0 L108.6 60.0 Z" fill="rgb(220, 169, 89)"/><path d="M110.3 19.0 L111.9 18.0 L111.9 62.0 L110.3 61.0 Z" fill="rgb(220, 165, 86)"/><path d="M111.9 18.0 L113.6 17.1 L113.6 62.9 L111.9 62.0 Z" fill="rgb(220, 162, 84)"/><path d="M113.6 17.1 L115.2 16.3 L115.2 63.7 L113.6 62.9 Z" fill="rgb(220, 159, 82)"/><path d="M115.2 16.3 L116.8 15.7 L116.8 64.3 L115.2 63.7 Z" fill="rgb(221, 156, 80)"/><path d="M116.8 15.7 L118.5 15.2 L118.5 64.8 L116.8 64.3 Z" fill="rgb(221, 153, 79)"/><path d="M118.5 15.2 L120.1 14.9 L120.1 65.1 L118.5 64.8 Z" fill="rgb(221, 151, 77)"/><path d="M120.1 14.9 L121.8 14.8 L121.8 65.2 L120.1 65.1 Z" fill="rgb(221, 150, 77)"/><path d="M121.8 14.8 L123.4 14.8 L123.4 65.2 L121.8 65.2 Z" fill="rgb(221, 150, 76)"/><path d="M123.4 14.8 L125.1 14.9 L125.1 65.1 L123.4 65.2 Z" fill="rgb(221, 150, 76)"/><path d="M125.1 14.9 L126.7 15.1 L126.7 64.9 L125.1 65.1 Z" fill="rgb(221, 149, 76)"/><path d="M126.7 15.1 L128.4 15.2 L128.4 64.8 L126.7 64.9 Z" fill="rgb(222, 147, 75)"/><path d="M128.4 15.2 L130.0 15.4 L130.0 64.6 L128.4 64.8 Z" fill="rgb(222, 146, 74)"/><path d="M130.0 15.4 L131.6 15.6 L131.6 64.4 L130.0 64.6 Z" fill="rgb(222, 144, 72)"/><path d="M131.6 15.6 L133.3 15.9 L133.3 64.1 L131.6 64.4 Z" fill="rgb(222, 142, 71)"/><path d="M133.3 15.9 L134.9 16.1 L134.9 63.9 L133.3 64.1 Z" fill="rgb(222, 139, 69)"/><path d="M134.9 16.1 L136.6 16.3 L136.6 63.7 L134.9 63.9 Z" fill="rgb(223, 137, 68)"/><path d="M136.6 16.3 L138.2 16.5 L138.2 63.5 L136.6 63.7 Z" fill="rgb(223, 135, 67)"/><path d="M138.2 16.5 L139.9 16.7 L139.9 63.3 L138.2 63.5 Z" fill="rgb(223, 133, 65)"/><path d="M139.9 16.7 L141.5 16.9 L141.5 63.1 L139.9 63.3 Z" fill="rgb(223, 131, 64)"/><path d="M141.5 16.9 L143.2 17.0 L143.2 63.0 L141.5 63.1 Z" fill="rgb(223, 129, 63)"/><path d="M143.2 17.0 L144.8 17.1 L144.8 62.9 L143.2 63.0 Z" fill="rgb(223, 128, 62)"/><path d="M144.8 17.1 L146.4 17.1 L146.4 62.9 L144.8 62.9 Z" fill="rgb(223, 127, 62)"/><path d="M146.4 17.1 L148.1 17.1 L148.1 62.9 L146.4 62.9 Z" fill="rgb(224, 127, 61)"/><path d="M148.1 17.1 L149.7 16.9 L149.7 63.1 L148.1 62.9 Z" fill="rgb(224, 127, 61)"/><path d="M149.7 16.9 L151.4 16.7 L151.4 63.3 L149.7 63.1 Z" fill="rgb(224, 127, 61)"/><path d="M151.4 16.7 L153.0 16.4 L153.0 63.6 L151.4 63.3 Z" fill="rgb(224, 127, 61)"/><path d="M153.0 16.4 L154.7 16.1 L154.7 63.9 L153.0 63.6 Z" fill="rgb(224, 126, 61)"/><path d="M154.7 16.1 L156.3 15.7 L156.3 64.3 L154.7 63.9 Z" fill="rgb(224, 126, 61)"/><path d="M156.3 15.7 L157.9 15.3 L157.9 64.7 L156.3 64.3 Z" fill="rgb(224, 126, 61)"/><path d="M157.9 15.3 L159.6 14.9 L159.6 65.1 L157.9 64.7 Z" fill="rgb(224, 126, 60)"/><path d="M159.6 14.9 L161.2 14.5 L161.2 65.5 L159.6 65.1 Z" fill="rgb(224, 125, 60)"/><path d="M161.2 14.5 L162.9 14.1 L162.9 65.9 L161.2 65.5 Z" fill="rgb(224, 125, 60)"/><path d="M162.9 14.1 L164.5 13.8 L164.5 66.2 L162.9 65.9 Z" fill="rgb(224, 125, 60)"/><path d="M164.5 13.8 L166.2 13.5 L166.2 66.5 L164.5 66.2 Z" fill="rgb(224, 124, 59)"/><path d="M166.2 13.5 L167.8 13.2 L167.8 66.8 L166.2 66.5 Z" fill="rgb(224, 124, 59)"/><path d="M167.8 13.2 L169.5 13.1 L169.5 66.9 L167.8 66.8 Z" fill="rgb(224, 124, 59)"/><path d="M169.5 13.1 L171.1 13.0 L171.1 67.0 L169.5 66.9 Z" fill="rgb(224, 124, 59)"/><path d="M171.1 13.0 L172.7 13.0 L172.7 67.0 L171.1 67.0 Z" fill="rgb(224, 124, 59)"/><path d="M172.7 13.0 L174.4 13.1 L174.4 66.9 L172.7 67.0 Z" fill="rgb(224, 124, 59)"/><path d="M174.4 13.1 L176.0 13.2 L176.0 66.8 L174.4 66.9 Z" fill="rgb(224, 124, 59)"/><path d="M176.0 13.2 L177.7 13.4 L177.7 66.6 L176.0 66.8 Z" fill="rgb(224, 124, 59)"/><path d="M177.7 13.4 L179.3 13.5 L179.3 66.5 L177.7 66.6 Z" fill="rgb(224, 125, 60)"/><path d="M179.3 13.5 L181.0 13.8 L181.0 66.2 L179.3 66.5 Z" fill="rgb(224, 125, 60)"/><path d="M181.0 13.8 L182.6 14.0 L182.6 66.0 L181.0 66.2 Z" fill="rgb(224, 126, 61)"/><path d="M182.6 14.0 L184.2 14.2 L184.2 65.8 L182.6 66.0 Z" fill="rgb(224, 127, 61)"/><path d="M184.2 14.2 L185.9 14.4 L185.9 65.6 L184.2 65.8 Z" fill="rgb(223, 128, 62)"/><path d="M185.9 14.4 L187.5 14.7 L187.5 65.3 L185.9 65.6 Z" fill="rgb(223, 128, 62)"/><path d="M187.5 14.7 L189.2 14.9 L189.2 65.1 L187.5 65.3 Z" fill="rgb(223, 129, 63)"/><path d="M189.2 14.9 L190.8 15.1 L190.8 64.9 L189.2 65.1 Z" fill="rgb(223, 130, 63)"/><path d="M190.8 15.1 L192.5 15.2 L192.5 64.8 L190.8 64.9 Z" fill="rgb(223, 131, 64)"/><path d="M192.5 15.2 L194.1 15.3 L194.1 64.7 L192.5 64.8 Z" fill="rgb(223, 131, 64)"/><path d="M194.1 15.3 L195.8 15.4 L195.8 64.6 L194.1 64.7 Z" fill="rgb(223, 131, 64)"/><path d="M195.8 15.4 L197.4 15.4 L197.4 64.6 L195.8 64.6 Z" fill="rgb(223, 132, 64)"/><path d="M197.4 15.4 L199.0 15.4 L199.0 64.6 L197.4 64.6 Z" fill="rgb(223, 132, 64)"/><path d="M199.0 15.4 L200.7 15.4 L200.7 64.6 L199.0 64.6 Z" fill="rgb(223, 132, 65)"/><path d="M200.7 15.4 L202.3 15.4 L202.3 64.6 L200.7 64.6 Z" fill="rgb(223, 133, 65)"/><path d="M202.3 15.4 L204.0 15.4 L204.0 64.6 L202.3 64.6 Z" fill="rgb(223, 134, 66)"/><path d="M204.0 15.4 L205.6 15.4 L205.6 64.6 L204.0 64.6 Z" fill="rgb(223, 136, 67)"/><path d="M205.6 15.4 L207.3 15.4 L207.3 64.6 L205.6 64.6 Z" fill="rgb(222, 138, 68)"/><path d="M207.3 15.4 L208.9 15.5 L208.9 64.5 L207.3 64.6 Z" fill="rgb(222, 140, 70)"/><path d="M208.9 15.5 L210.5 15.5 L210.5 64.5 L208.9 64.5 Z" fill="rgb(222, 142, 71)"/><path d="M210.5 15.5 L212.2 15.5 L212.2 64.5 L210.5 64.5 Z" fill="rgb(222, 144, 73)"/><path d="M212.2 15.5 L213.8 15.5 L213.8 64.5 L212.2 64.5 Z" fill="rgb(222, 146, 74)"/><path d="M213.8 15.5 L215.5 15.5 L215.5 64.5 L213.8 64.5 Z" fill="rgb(221, 148, 75)"/><path d="M215.5 15.5 L217.1 15.5 L217.1 64.5 L215.5 64.5 Z" fill="rgb(221, 150, 76)"/><path d="M217.1 15.5 L218.8 15.5 L218.8 64.5 L217.1 64.5 Z" fill="rgb(221, 152, 77)"/><path d="M218.8 15.5 L220.4 15.5 L220.4 64.5 L218.8 64.5 Z" fill="rgb(221, 153, 78)"/><path d="M220.4 15.5 L222.1 15.5 L222.1 64.5 L220.4 64.5 Z" fill="rgb(221, 154, 79)"/><path d="M222.1 15.5 L223.7 15.5 L223.7 64.5 L222.1 64.5 Z" fill="rgb(221, 154, 79)"/><path d="M223.7 15.5 L225.3 15.6 L225.3 64.4 L223.7 64.5 Z" fill="rgb(221, 154, 79)"/><path d="M225.3 15.6 L227.0 15.8 L227.0 64.2 L225.3 64.4 Z" fill="rgb(221, 155, 80)"/><path d="M227.0 15.8 L228.6 16.0 L228.6 64.0 L227.0 64.2 Z" fill="rgb(221, 157, 81)"/><path d="M228.6 16.0 L230.3 16.3 L230.3 63.7 L228.6 64.0 Z" fill="rgb(220, 159, 82)"/><path d="M230.3 16.3 L231.9 16.5 L231.9 63.5 L230.3 63.7 Z" fill="rgb(220, 161, 84)"/><path d="M231.9 16.5 L233.6 16.8 L233.6 63.2 L231.9 63.5 Z" fill="rgb(220, 164, 86)"/><path d="M233.6 16.8 L235.2 17.1 L235.2 62.9 L233.6 63.2 Z" fill="rgb(220, 167, 88)"/><path d="M235.2 17.1 L236.8 17.4 L236.8 62.6 L235.2 62.9 Z" fill="rgb(219, 170, 90)"/><path d="M236.8 17.4 L238.5 17.7 L238.5 62.3 L236.8 62.6 Z" fill="rgb(219, 173, 92)"/><path d="M238.5 17.7 L240.1 18.0 L240.1 62.0 L238.5 62.3 Z" fill="rgb(219, 176, 93)"/><path d="M240.1 18.0 L241.8 18.2 L241.8 61.8 L240.1 62.0 Z" fill="rgb(219, 178, 95)"/><path d="M241.8 18.2 L243.4 18.4 L243.4 61.6 L241.8 61.8 Z" fill="rgb(218, 181, 97)"/><path d="M243.4 18.4 L245.1 18.5 L245.1 61.5 L243.4 61.6 Z" fill="rgb(218, 182, 98)"/><path d="M245.1 18.5 L246.7 18.5 L246.7 61.5 L245.1 61.5 Z" fill="rgb(218, 184, 99)"/><path d="M246.7 18.5 L248.4 18.6 L248.4 61.4 L246.7 61.5 Z" fill="rgb(218, 184, 99)"/><path d="M248.4 18.6 L250.0 18.7 L250.0 61.3 L248.4 61.4 Z" fill="rgb(218, 184, 99)"/><path d="M250.0 18.7 L251.6 19.0 L251.6 61.0 L250.0 61.3 Z" fill="rgb(218, 185, 100)"/><path d="M251.6 19.0 L253.3 19.4 L253.3 60.6 L251.6 61.0 Z" fill="rgb(218, 187, 101)"/><path d="M253.3 19.4 L254.9 19.8 L254.9 60.2 L253.3 60.6 Z" fill="rgb(218, 189, 102)"/><path d="M254.9 19.8 L256.6 20.3 L256.6 59.7 L254.9 60.2 Z" fill="rgb(217, 192, 104)"/><path d="M256.6 20.3 L258.2 20.8 L258.2 59.2 L256.6 59.7 Z" fill="rgb(217, 195, 106)"/><path d="M258.2 20.8 L259.9 21.3 L259.9 58.7 L258.2 59.2 Z" fill="rgb(211, 194, 109)"/><path d="M259.9 21.3 L261.5 21.9 L261.5 58.1 L259.9 58.7 Z" fill="rgb(205, 193, 111)"/><path d="M261.5 21.9 L263.2 22.4 L263.2 57.6 L261.5 58.1 Z" fill="rgb(198, 192, 114)"/><path d="M263.2 22.4 L264.8 22.9 L264.8 57.1 L263.2 57.6 Z" fill="rgb(192, 191, 117)"/><path d="M264.8 22.9 L266.4 23.3 L266.4 56.7 L264.8 57.1 Z" fill="rgb(187, 191, 119)"/><path d="M266.4 23.3 L268.1 23.6 L268.1 56.4 L266.4 56.7 Z" fill="rgb(182, 190, 121)"/><path d="M268.1 23.6 L269.7 23.9 L269.7 56.1 L268.1 56.4 Z" fill="rgb(178, 189, 123)"/><path d="M269.7 23.9 L271.4 24.0 L271.4 56.0 L269.7 56.1 Z" fill="rgb(175, 189, 124)"/><path d="M271.4 24.0 L273.0 24.0 L273.0 56.0 L271.4 56.0 Z" fill="rgb(173, 189, 125)"/><path d="M273.0 24.0 L274.7 24.2 L274.7 55.8 L273.0 56.0 Z" fill="rgb(173, 189, 125)"/><path d="M274.7 24.2 L276.3 24.5 L276.3 55.5 L274.7 55.8 Z" fill="rgb(172, 188, 125)"/><path d="M276.3 24.5 L277.9 24.9 L277.9 55.1 L276.3 55.5 Z" fill="rgb(170, 188, 126)"/><path d="M277.9 24.9 L279.6 25.4 L279.6 54.6 L277.9 55.1 Z" fill="rgb(167, 188, 128)"/><path d="M279.6 25.4 L281.2 26.0 L281.2 54.0 L279.6 54.6 Z" fill="rgb(163, 187, 129)"/><path d="M281.2 26.0 L282.9 26.6 L282.9 53.4 L281.2 54.0 Z" fill="rgb(159, 187, 131)"/><path d="M282.9 26.6 L284.5 27.3 L284.5 52.7 L282.9 53.4 Z" fill="rgb(155, 186, 133)"/><path d="M284.5 27.3 L286.2 27.9 L286.2 52.1 L284.5 52.7 Z" fill="rgb(150, 185, 135)"/><path d="M286.2 27.9 L287.8 28.5 L287.8 51.5 L286.2 52.1 Z" fill="rgb(146, 185, 137)"/><path d="M287.8 28.5 L289.5 29.1 L289.5 50.9 L287.8 51.5 Z" fill="rgb(141, 184, 139)"/><path d="M289.5 29.1 L291.1 29.7 L291.1 50.3 L289.5 50.9 Z" fill="rgb(137, 183, 140)"/><path d="M291.1 29.7 L292.7 30.1 L292.7 49.9 L291.1 50.3 Z" fill="rgb(133, 183, 142)"/><path d="M292.7 30.1 L294.4 30.4 L294.4 49.6 L292.7 49.9 Z" fill="rgb(130, 182, 143)"/><path d="M294.4 30.4 L296.0 30.6 L296.0 49.4 L294.4 49.6 Z" fill="rgb(128, 182, 144)"/><path d="M296.0 30.6 L297.7 30.7 L297.7 49.3 L296.0 49.4 Z" fill="rgb(127, 182, 145)"/><path d="M297.7 30.7 L299.3 30.6 L299.3 49.4 L297.7 49.3 Z" fill="rgb(126, 182, 145)"/><path d="M299.3 30.6 L301.0 30.5 L301.0 49.5 L299.3 49.4 Z" fill="rgb(126, 182, 145)"/><path d="M301.0 30.5 L302.6 30.2 L302.6 49.8 L301.0 49.5 Z" fill="rgb(125, 182, 146)"/><path d="M302.6 30.2 L304.2 30.0 L304.2 50.0 L302.6 49.8 Z" fill="rgb(124, 181, 146)"/><path d="M304.2 30.0 L305.9 29.7 L305.9 50.3 L304.2 50.0 Z" fill="rgb(123, 181, 147)"/><path d="M305.9 29.7 L307.5 29.3 L307.5 50.7 L305.9 50.3 Z" fill="rgb(121, 181, 147)"/><path d="M307.5 29.3 L309.2 29.0 L309.2 51.0 L307.5 50.7 Z" fill="rgb(119, 181, 148)"/><path d="M309.2 29.0 L310.0 29.0 L310.0 51.0 L309.2 51.0 Z" fill="rgb(117, 180, 149)"/>
  <path d="M10.0 28.8 L11.6 28.4 L13.3 28.1 L14.9 27.7 L16.6 27.4 L18.2 27.2 L19.9 27.0 L21.5 26.9 L23.2 26.9 L24.8 27.0 L26.4 27.2 L28.1 27.5 L29.7 27.8 L31.4 28.3 L33.0 28.7 L34.7 29.2 L36.3 29.7 L37.9 30.2 L39.6 30.6 L41.2 31.0 L42.9 31.4 L44.5 31.6 L46.2 31.7 L47.8 31.7 L49.5 31.5 L51.1 31.2 L52.7 30.7 L54.4 30.2 L56.0 29.5 L57.7 28.9 L59.3 28.2 L61.0 27.5 L62.6 26.8 L64.2 26.2 L65.9 25.6 L67.5 25.2 L69.2 24.9 L70.8 24.8 L72.5 24.8 L74.1 24.8 L75.8 24.8 L77.4 24.8 L79.0 24.8 L80.7 24.8 L82.3 24.8 L84.0 24.9 L85.6 24.9 L87.3 24.9 L88.9 24.9 L90.5 24.9 L92.2 24.9 L93.8 24.9 L95.5 24.9 L97.1 24.9 L98.8 24.7 L100.4 24.2 L102.1 23.6 L103.7 22.8 L105.3 21.9 L107.0 21.0 L108.6 20.0 L110.3 19.0 L111.9 18.0 L113.6 17.1 L115.2 16.3 L116.8 15.7 L118.5 15.2 L120.1 14.9 L121.8 14.8 L123.4 14.8 L125.1 14.9 L126.7 15.1 L128.4 15.2 L130.0 15.4 L131.6 15.6 L133.3 15.9 L134.9 16.1 L136.6 16.3 L138.2 16.5 L139.9 16.7 L141.5 16.9 L143.2 17.0 L144.8 17.1 L146.4 17.1 L148.1 17.1 L149.7 16.9 L151.4 16.7 L153.0 16.4 L154.7 16.1 L156.3 15.7 L157.9 15.3 L159.6 14.9 L161.2 14.5 L162.9 14.1 L164.5 13.8 L166.2 13.5 L167.8 13.2 L169.5 13.1 L171.1 13.0 L172.7 13.0 L174.4 13.1 L176.0 13.2 L177.7 13.4 L179.3 13.5 L181.0 13.8 L182.6 14.0 L184.2 14.2 L185.9 14.4 L187.5 14.7 L189.2 14.9 L190.8 15.1 L192.5 15.2 L194.1 15.3 L195.8 15.4 L197.4 15.4 L199.0 15.4 L200.7 15.4 L202.3 15.4 L204.0 15.4 L205.6 15.4 L207.3 15.4 L208.9 15.5 L210.5 15.5 L212.2 15.5 L213.8 15.5 L215.5 15.5 L217.1 15.5 L218.8 15.5 L220.4 15.5 L222.1 15.5 L223.7 15.5 L225.3 15.6 L227.0 15.8 L228.6 16.0 L230.3 16.3 L231.9 16.5 L233.6 16.8 L235.2 17.1 L236.8 17.4 L238.5 17.7 L240.1 18.0 L241.8 18.2 L243.4 18.4 L245.1 18.5 L246.7 18.5 L248.4 18.6 L250.0 18.7 L251.6 19.0 L253.3 19.4 L254.9 19.8 L256.6 20.3 L258.2 20.8 L259.9 21.3 L261.5 21.9 L263.2 22.4 L264.8 22.9 L266.4 23.3 L268.1 23.6 L269.7 23.9 L271.4 24.0 L273.0 24.0 L274.7 24.2 L276.3 24.5 L277.9 24.9 L279.6 25.4 L281.2 26.0 L282.9 26.6 L284.5 27.3 L286.2 27.9 L287.8 28.5 L289.5 29.1 L291.1 29.7 L292.7 30.1 L294.4 30.4 L296.0 30.6 L297.7 30.7 L299.3 30.6 L301.0 30.5 L302.6 30.2 L304.2 30.0 L305.9 29.7 L307.5 29.3 L309.2 29.0 L309.2 51.0 L307.5 50.7 L305.9 50.3 L304.2 50.0 L302.6 49.8 L301.0 49.5 L299.3 49.4 L297.7 49.3 L296.0 49.4 L294.4 49.6 L292.7 49.9 L291.1 50.3 L289.5 50.9 L287.8 51.5 L286.2 52.1 L284.5 52.7 L282.9 53.4 L281.2 54.0 L279.6 54.6 L277.9 55.1 L276.3 55.5 L274.7 55.8 L273.0 56.0 L271.4 56.0 L269.7 56.1 L268.1 56.4 L266.4 56.7 L264.8 57.1 L263.2 57.6 L261.5 58.1 L259.9 58.7 L258.2 59.2 L256.6 59.7 L254.9 60.2 L253.3 60.6 L251.6 61.0 L250.0 61.3 L248.4 61.4 L246.7 61.5 L245.1 61.5 L243.4 61.6 L241.8 61.8 L240.1 62.0 L238.5 62.3 L236.8 62.6 L235.2 62.9 L233.6 63.2 L231.9 63.5 L230.3 63.7 L228.6 64.0 L227.0 64.2 L225.3 64.4 L223.7 64.5 L222.1 64.5 L220.4 64.5 L218.8 64.5 L217.1 64.5 L215.5 64.5 L213.8 64.5 L212.2 64.5 L210.5 64.5 L208.9 64.5 L207.3 64.6 L205.6 64.6 L204.0 64.6 L202.3 64.6 L200.7 64.6 L199.0 64.6 L197.4 64.6 L195.8 64.6 L194.1 64.7 L192.5 64.8 L190.8 64.9 L189.2 65.1 L187.5 65.3 L185.9 65.6 L184.2 65.8 L182.6 66.0 L181.0 66.2 L179.3 66.5 L177.7 66.6 L176.0 66.8 L174.4 66.9 L172.7 67.0 L171.1 67.0 L169.5 66.9 L167.8 66.8 L166.2 66.5 L164.5 66.2 L162.9 65.9 L161.2 65.5 L159.6 65.1 L157.9 64.7 L156.3 64.3 L154.7 63.9 L153.0 63.6 L151.4 63.3 L149.7 63.1 L148.1 62.9 L146.4 62.9 L144.8 62.9 L143.2 63.0 L141.5 63.1 L139.9 63.3 L138.2 63.5 L136.6 63.7 L134.9 63.9 L133.3 64.1 L131.6 64.4 L130.0 64.6 L128.4 64.8 L126.7 64.9 L125.1 65.1 L123.4 65.2 L121.8 65.2 L120.1 65.1 L118.5 64.8 L116.8 64.3 L115.2 63.7 L113.6 62.9 L111.9 62.0 L110.3 61.0 L108.6 60.0 L107.0 59.0 L105.3 58.1 L103.7 57.2 L102.1 56.4 L100.4 55.8 L98.8 55.3 L97.1 55.1 L95.5 55.1 L93.8 55.1 L92.2 55.1 L90.5 55.1 L88.9 55.1 L87.3 55.1 L85.6 55.1 L84.0 55.1 L82.3 55.2 L80.7 55.2 L79.0 55.2 L77.4 55.2 L75.8 55.2 L74.1 55.2 L72.5 55.2 L70.8 55.2 L69.2 55.1 L67.5 54.8 L65.9 54.4 L64.2 53.8 L62.6 53.2 L61.0 52.5 L59.3 51.8 L57.7 51.1 L56.0 50.5 L54.4 49.8 L52.7 49.3 L51.1 48.8 L49.5 48.5 L47.8 48.3 L46.2 48.3 L44.5 48.4 L42.9 48.6 L41.2 49.0 L39.6 49.4 L37.9 49.8 L36.3 50.3 L34.7 50.8 L33.0 51.3 L31.4 51.7 L29.7 52.2 L28.1 52.5 L26.4 52.8 L24.8 53.0 L23.2 53.1 L21.5 53.1 L19.9 53.0 L18.2 52.8 L16.6 52.6 L14.9 52.3 L13.3 51.9 L11.6 51.6 L10.0 51.2 Z" fill="none" stroke="#1a1a1a" stroke-opacity="0.22" stroke-width="0.8" stroke-linejoin="round"/>
</svg>
