<?xml version="1.0" encoding="UTF-8"?>
<svg xmlns="http://www.w3.org/2000/svg" viewBox="0 0 320 80" role="img">
  <title>Jersey City seasonal climate ribbon</title>
  <path d="M10.0 13.2 L11.6 13.2 L11.6 66.8 L10.0 66.8 Z" fill="rgb(101, 178, 156)"/><path d="M11.6 13.2 L13.3 13.2 L13.3 66.8 L11.6 66.8 Z" fill="rgb(99, 178, 157)"/><path d="M13.3 13.2 L14.9 13.3 L14.9 66.7 L13.3 66.8 Z" fill="rgb(97, 177, 158)"/><path d="M14.9 13.3 L16.6 13.3 L16.6 66.7 L14.9 66.7 Z" fill="rgb(95, 177, 159)"/><path d="M16.6 13.3 L18.2 13.3 L18.2 66.7 L16.6 66.7 Z" fill="rgb(93, 177, 159)"/><path d="M18.2 13.3 L19.9 13.3 L19.9 66.7 L18.2 66.7 Z" fill="rgb(92, 177, 160)"/><path d="M19.9 13.3 L21.5 13.3 L21.5 66.7 L19.9 66.7 Z" fill="rgb(91, 177, 160)"/><path d="M21.5 13.3 L23.2 13.3 L23.2 66.7 L21.5 66.7 Z" fill="rgb(90, 176, 161)"/><path d="M23.2 13.3 L24.8 13.4 L24.8 66.6 L23.2 66.7 Z" fill="rgb(90, 176, 161)"/><path d="M24.8 13.4 L26.4 13.5 L26.4 66.5 L24.8 66.6 Z" fill="rgb(90, 176, 161)"/><path d="M26.4 13.5 L28.1 13.6 L28.1 66.4 L26.4 66.5 Z" fill="rgb(91, 177, 160)"/><path d="M28.1 13.6 L29.7 13.8 L29.7 66.2 L28.1 66.4 Z" fill="rgb(92, 177, 160)"/><path d="M29.7 13.8 L31.4 13.9 L31.4 66.1 L29.7 66.2 Z" fill="rgb(93, 177, 160)"/><path d="M31.4 13.9 L33.0 14.1 L33.0 65.9 L31.4 66.1 Z" fill="rgb(94, 177, 159)"/><path d="M33.0 14.1 L34.7 14.3 L34.7 65.7 L33.0 65.9 Z" fill="rgb(95, 177, 158)"/><path d="M34.7 14.3 L36.3 14.5 L36.3 65.5 L34.7 65.7 Z" fill="rgb(97, 177, 158)"/><path d="M36.3 14.5 L37.9 14.7 L37.9 65.3 L36.3 65.5 Z" fill="rgb(98, 178, 157)"/><path d="M37.9 14.7 L39.6 14.9 L39.6 65.1 L37.9 65.3 Z" fill="rgb(99, 178, 157)"/><path d="M39.6 14.9 L41.2 15.1 L41.2 64.9 L39.6 65.1 Z" fill="rgb(100, 178, 156)"/><path d="M41.2 15.1 L42.9 15.2 L42.9 64.8 L41.2 64.9 Z" fill="rgb(102, 178, 156)"/><path d="M42.9 15.2 L44.5 15.3 L44.5 64.7 L42.9 64.8 Z" fill="rgb(102, 178, 155)"/><path d="M44.5 15.3 L46.2 15.4 L46.2 64.6 L44.5 64.7 Z" fill="rgb(103, 178, 155)"/><path d="M46.2 15.4 L47.8 15.4 L47.8 64.6 L46.2 64.6 Z" fill="rgb(103, 178, 155)"/><path d="M47.8 15.4 L49.5 15.4 L49.5 64.6 L47.8 64.6 Z" fill="rgb(104, 178, 155)"/><path d="M49.5 15.4 L51.1 15.5 L51.1 64.5 L49.5 64.6 Z" fill="rgb(105, 179, 154)"/><path d="M51.1 15.5 L52.7 15.6 L52.7 64.4 L51.1 64.5 Z" fill="rgb(107, 179, 153)"/><path d="M52.7 15.6 L54.4 15.8 L54.4 64.2 L52.7 64.4 Z" fill="rgb(110, 179, 152)"/><path d="M54.4 15.8 L56.0 15.9 L56.0 64.1 L54.4 64.2 Z" fill="rgb(114, 180, 150)"/><path d="M56.0 15.9 L57.7 16.1 L57.7 63.9 L56.0 64.1 Z" fill="rgb(118, 181, 148)"/><path d="M57.7 16.1 L59.3 16.3 L59.3 63.7 L57.7 63.9 Z" fill="rgb(123, 181, 146)"/><path d="M59.3 16.3 L61.0 16.4 L61.0 63.6 L59.3 63.7 Z" fill="rgb(128, 182, 144)"/><path d="M61.0 16.4 L62.6 16.6 L62.6 63.4 L61.0 63.6 Z" fill="rgb(133, 183, 142)"/><path d="M62.6 16.6 L64.2 16.7 L64.2 63.3 L62.6 63.4 Z" fill="rgb(137, 183, 140)"/><path d="M64.2 16.7 L65.9 16.9 L65.9 63.1 L64.2 63.3 Z" fill="rgb(142, 184, 138)"/><path d="M65.9 16.9 L67.5 17.0 L67.5 63.0 L65.9 63.1 Z" fill="rgb(145, 185, 137)"/><path d="M67.5 17.0 L69.2 17.0 L69.2 63.0 L67.5 63.0 Z" fill="rgb(148, 185, 136)"/><path d="M69.2 17.0 L70.8 17.1 L70.8 62.9 L69.2 63.0 Z" fill="rgb(150, 185, 135)"/><path d="M70.8 17.1 L72.5 17.1 L72.5 62.9 L70.8 62.9 Z" fill="rgb(151, 185, 134)"/><path d="M72.5 17.1 L74.1 17.3 L74.1 62.7 L72.5 62.9 Z" fill="rgb(152, 185, 134)"/><path d="M74.1 17.3 L75.8 17.7 L75.8 62.3 L74.1 62.7 Z" fill="rgb(154, 186, 133)"/><path d="M75.8 17.7 L77.4 18.2 L77.4 61.8 L75.8 62.3 Z" fill="rgb(158, 186, 132)"/><path d="M77.4 18.2 L79.0 18.8 L79.0 61.2 L77.4 61.8 Z" fill="rgb(163, 187, 129)"/><path d="M79.0 18.8 L80.7 19.4 L80.7 60.6 L79.0 61.2 Z" fill="rgb(169, 188, 127)"/><path d="M80.7 19.4 L82.3 20.1 L82.3 59.9 L80.7 60.6 Z" fill="rgb(175, 189, 124)"/><path d="M82.3 20.1 L84.0 20.9 L84.0 59.1 L82.3 59.9 Z" fill="rgb(182, 190, 121)"/><path d="M84.0 20.9 L85.6 21.6 L85.6 58.4 L84.0 59.1 Z" fill="rgb(190, 191, 118)"/><path d="M85.6 21.6 L87.3 22.3 L87.3 57.7 L85.6 58.4 Z" fill="rgb(197, 192, 115)"/><path d="M87.3 22.3 L88.9 22.9 L88.9 57.1 L87.3 57.7 Z" fill="rgb(204, 193, 111)"/><path d="M88.9 22.9 L90.5 23.5 L90.5 56.5 L88.9 57.1 Z" fill="rgb(211, 194, 109)"/><path d="M90.5 23.5 L92.2 24.0 L92.2 56.0 L90.5 56.5 Z" fill="rgb(216, 195, 106)"/><path d="M92.2 24.0 L93.8 24.3 L93.8 55.7 L92.2 56.0 Z" fill="rgb(217, 193, 105)"/><path d="M93.8 24.3 L95.5 24.5 L95.5 55.5 L93.8 55.7 Z" fill="rgb(217, 191, 103)"/><path d="M95.5 24.5 L97.1 24.5 L97.1 55.5 L95.5 55.5 Z" fill="rgb(217, 190, 103)"/><path d="M97.1 24.5 L98.8 24.5 L98.8 55.5 L97.1 55.5 Z" fill="rgb(217, 190, 103)"/><path d="M98.8 24.5 L100.4 24.6 L100.4 55.4 L98.8 55.5 Z" fill="rgb(218, 189, 102)"/><path d="M100.4 24.6 L102.1 24.7 L102.1 55.3 L100.4 55.4 Z" fill="rgb(218, 188, 101)"/><path d="M102.1 24.7 L103.7 24.9 L103.7 55.1 L102.1 55.3 Z" fill="rgb(218, 186, 100)"/><path d="M103.7 24.9 L105.3 25.0 L105.3 55.0 L103.7 55.1 Z" fill="rgb(218, 183, 98)"/><path d="M105.3 25.0 L107.0 25.2 L107.0 54.8 L105.3 55.0 Z" fill="rgb(218, 181, 96)"/><path d="M107.0 25.2 L108.6 25.4 L108.6 54.6 L107.0 54.8 Z" fill="rgb(219, 177, 94)"/><path d="M108.6 25.4 L110.3 25.6 L110.3 54.4 L108.6 54.6 Z" fill="rgb(219, 174, 92)"/><path d="M110.3 25.6 L111.9 25.7 L111.9 54.3 L110.3 54.4 Z" fill="rgb(219, 171, 90)"/><path d="M111.9 25.7 L113.6 25.9 L113.6 54.1 L111.9 54.3 Z" fill="rgb(220, 168, 88)"/><path d="M113.6 25.9 L115.2 26.0 L115.2 54.0 L113.6 54.1 Z" fill="rgb(220, 165, 86)"/><path d="M115.2 26.0 L116.8 26.1 L116.8 53.9 L115.2 54.0 Z" fill="rgb(220, 163, 85)"/><path d="M116.8 26.1 L118.5 26.2 L118.5 53.8 L116.8 53.9 Z" fill="rgb(220, 161, 83)"/><path d="M118.5 26.2 L120.1 26.3 L120.1 53.7 L118.5 53.8 Z" fill="rgb(220, 159, 82)"/><path d="M120.1 26.3 L121.8 26.3 L121.8 53.7 L120.1 53.7 Z" fill="rgb(221, 158, 82)"/><path d="M121.8 26.3 L123.4 26.3 L123.4 53.7 L121.8 53.7 Z" fill="rgb(221, 158, 81)"/><path d="M123.4 26.3 L125.1 26.4 L125.1 53.6 L123.4 53.7 Z" fill="rgb(221, 157, 81)"/><path d="M125.1 26.4 L126.7 26.5 L126.7 53.5 L125.1 53.6 Z" fill="rgb(221, 156, 81)"/><path d="M126.7 26.5 L128.4 26.7 L128.4 53.3 L126.7 53.5 Z" fill="rgb(221, 155, 80)"/><path d="M128.4 26.7 L130.0 26.9 L130.0 53.1 L128.4 53.3 Z" fill="rgb(221, 153, 79)"/><path d="M130.0 26.9 L131.6 27.1 L131.6 52.9 L130.0 53.1 Z" fill="rgb(221, 151, 77)"/><path d="M131.6 27.1 L133.3 27.2 L133.3 52.8 L131.6 52.9 Z" fill="rgb(221, 149, 76)"/><path d="M133.3 27.2 L134.9 27.4 L134.9 52.6 L133.3 52.8 Z" fill="rgb(222, 147, 74)"/><path d="M134.9 27.4 L136.6 27.6 L136.6 52.4 L134.9 52.6 Z" fill="rgb(222, 145, 73)"/><path d="M136.6 27.6 L138.2 27.8 L138.2 52.2 L136.6 52.4 Z" fill="rgb(222, 142, 71)"/><path d="M138.2 27.8 L139.9 28.0 L139.9 52.0 L138.2 52.2 Z" fill="rgb(222, 140, 70)"/><path d="M139.9 28.0 L141.5 28.1 L141.5 51.9 L139.9 52.0 Z" fill="rgb(222, 138, 69)"/><path d="M141.5 28.1 L143.2 28.2 L143.2 51.8 L141.5 51.9 Z" fill="rgb(223, 137, 68)"/><path d="M143.2 28.2 L144.8 28.3 L144.8 51.7 L143.2 51.8 Z" fill="rgb(223, 136, 67)"/><path d="M144.8 28.3 L146.4 28.3 L146.4 51.7 L144.8 51.7 Z" fill="rgb(223, 135, 66)"/><path d="M146.4 28.3 L148.1 28.4 L148.1 51.6 L146.4 51.7 Z" fill="rgb(223, 134, 66)"/><path d="M148.1 28.4 L149.7 28.5 L149.7 51.5 L148.1 51.6 Z" fill="rgb(223, 134, 66)"/><path d="M149.7 28.5 L151.4 28.6 L151.4 51.4 L149.7 51.5 Z" fill="rgb(223, 134, 66)"/><path d="M151.4 28.6 L153.0 28.8 L153.0 51.2 L151.4 51.4 Z" fill="rgb(223, 133, 65)"/><path d="M153.0 28.8 L154.7 29.0 L154.7 51.0 L153.0 51.2 Z" fill="rgb(223, 132, 65)"/><path d="M154.7 29.0 L156.3 29.3 L156.3 50.7 L154.7 51.0 Z" fill="rgb(223, 131, 64)"/><path d="M156.3 29.3 L157.9 29.6 L157.9 50.4 L156.3 50.7 Z" fill="rgb(223, 130, 63)"/><path d="M157.9 29.6 L159.6 29.8 L159.6 50.2 L157.9 50.4 Z" fill="rgb(223, 129, 63)"/><path d="M159.6 29.8 L161.2 30.1 L161.2 49.9 L159.6 50.2 Z" fill="rgb(223, 128, 62)"/><path d="M161.2 30.1 L162.9 30.4 L162.9 49.6 L161.2 49.9 Z" fill="rgb(224, 126, 61)"/><path d="M162.9 30.4 L164.5 30.6 L164.5 49.4 L162.9 49.6 Z" fill="rgb(224, 125, 60)"/><path d="M164.5 30.6 L166.2 30.8 L166.2 49.2 L164.5 49.4 Z" fill="rgb(224, 124, 59)"/><path d="M166.2 30.8 L167.8 31.0 L167.8 49.0 L166.2 49.2 Z" fill="rgb(224, 123, 59)"/><path d="M167.8 31.0 L169.5 31.1 L169.5 48.9 L167.8 49.0 Z" fill="rgb(224, 123, 58)"/><path d="M169.5 31.1 L171.1 31.1 L171.1 48.9 L169.5 48.9 Z" fill="rgb(224, 122, 58)"/><path d="M171.1 31.1 L172.7 31.1 L172.7 48.9 L171.1 48.9 Z" fill="rgb(224, 122, 58)"/><path d="M172.7 31.1 L174.4 31.1 L174.4 48.9 L172.7 48.9 Z" fill="rgb(224, 122, 58)"/><path d="M174.4 31.1 L176.0 31.2 L176.0 48.8 L174.4 48.9 Z" fill="rgb(224, 122, 58)"/><path d="M176.0 31.2 L177.7 31.2 L177.7 48.8 L176.0 48.8 Z" fill="rgb(224, 123, 59)"/><path d="M177.7 31.2 L179.3 31.3 L179.3 48.7 L177.7 48.8 Z" fill="rgb(224, 124, 59)"/><path d="M179.3 31.3 L181.0 31.4 L181.0 48.6 L179.3 48.7 Z" fill="rgb(224, 125, 60)"/><path d="M181.0 31.4 L182.6 31.5 L182.6 48.5 L181.0 48.6 Z" fill="rgb(224, 126, 60)"/><path d="M182.6 31.5 L184.2 31.6 L184.2 48.4 L182.6 48.5 Z" fill="rgb(224, 127, 61)"/><path d="M184.2 31.6 L185.9 31.7 L185.9 48.3 L184.2 48.4 Z" fill="rgb(223, 128, 62)"/><path d="M185.9 31.7 L187.5 31.7 L187.5 48.3 L185.9 48.3 Z" fill="rgb(223, 129, 63)"/><path d="M187.5 31.7 L189.2 31.8 L189.2 48.2 L187.5 48.3 Z" fill="rgb(223, 130, 64)"/><path d="M189.2 31.8 L190.8 31.9 L190.8 48.1 L189.2 48.2 Z" fill="rgb(223, 131, 64)"/><path d="M190.8 31.9 L192.5 31.9 L192.5 48.1 L190.8 48.1 Z" fill="rgb(223, 132, 65)"/><path d="M192.5 31.9 L194.1 32.0 L194.1 48.0 L192.5 48.1 Z" fill="rgb(223, 133, 65)"/><path d="M194.1 32.0 L195.8 32.0 L195.8 48.0 L194.1 48.0 Z" fill="rgb(223, 134, 66)"/><path d="M195.8 32.0 L197.4 32.0 L197.4 48.0 L195.8 48.0 Z" fill="rgb(223, 134, 66)"/><path d="M197.4 32.0 L199.0 32.0 L199.0 48.0 L197.4 48.0 Z" fill="rgb(223, 134, 66)"/><path d="M199.0 32.0 L200.7 31.8 L200.7 48.2 L199.0 48.0 Z" fill="rgb(223, 135, 66)"/><path d="M200.7 31.8 L202.3 31.6 L202.3 48.4 L200.7 48.2 Z" fill="rgb(223, 136, 67)"/><path d="M202.3 31.6 L204.0 31.4 L204.0 48.6 L202.3 48.4 Z" fill="rgb(223, 137, 68)"/><path d="M204.0 31.4 L205.6 31.1 L205.6 48.9 L204.0 48.6 Z" fill="rgb(222, 138, 69)"/><path d="M205.6 31.1 L207.3 30.7 L207.3 49.3 L205.6 48.9 Z" fill="rgb(222, 140, 70)"/><path d="M207.3 30.7 L208.9 30.4 L208.9 49.6 L207.3 49.3 Z" fill="rgb(222, 142, 71)"/><path d="M208.9 30.4 L210.5 30.1 L210.5 49.9 L208.9 49.6 Z" fill="rgb(222, 144, 73)"/><path d="M210.5 30.1 L212.2 29.7 L212.2 50.3 L210.5 49.9 Z" fill="rgb(222, 147, 74)"/><path d="M212.2 29.7 L213.8 29.4 L213.8 50.6 L212.2 50.3 Z" fill="rgb(221, 149, 76)"/><path d="M213.8 29.4 L215.5 29.1 L215.5 50.9 L213.8 50.6 Z" fill="rgb(221, 151, 77)"/><path d="M215.5 29.1 L217.1 28.9 L217.1 51.1 L215.5 50.9 Z" fill="rgb(221, 152, 78)"/><path d="M217.1 28.9 L218.8 28.7 L218.8 51.3 L217.1 51.1 Z" fill="rgb(221, 154, 79)"/><path d="M218.8 28.7 L220.4 28.6 L220.4 51.4 L218.8 51.3 Z" fill="rgb(221, 155, 80)"/><path d="M220.4 28.6 L222.1 28.5 L222.1 51.5 L220.4 51.4 Z" fill="rgb(221, 156, 80)"/><path d="M222.1 28.5 L223.7 28.4 L223.7 51.6 L222.1 51.5 Z" fill="rgb(221, 156, 80)"/><path d="M223.7 28.4 L225.3 28.2 L225.3 51.8 L223.7 51.6 Z" fill="rgb(221, 157, 81)"/><path d="M225.3 28.2 L227.0 27.8 L227.0 52.2 L225.3 51.8 Z" fill="rgb(221, 158, 81)"/><path d="M227.0 27.8 L228.6 27.3 L228.6 52.7 L227.0 52.2 Z" fill="rgb(220, 159, 83)"/><path d="M228.6 27.3 L230.3 26.7 L230.3 53.3 L228.6 52.7 Z" fill="rgb(220, 162, 84)"/><path d="M230.3 26.7 L231.9 26.0 L231.9 54.0 L230.3 53.3 Z" fill="rgb(220, 164, 86)"/><path d="M231.9 26.0 L233.6 25.3 L233.6 54.7 L231.9 54.0 Z" fill="rgb(220, 167, 88)"/><path d="M233.6 25.3 L235.2 24.6 L235.2 55.4 L233.6 54.7 Z" fill="rgb(219, 170, 90)"/><path d="M235.2 24.6 L236.8 23.9 L236.8 56.1 L235.2 55.4 Z" fill="rgb(219, 174, 92)"/><path d="M236.8 23.9 L238.5 23.3 L238.5 56.7 L236.8 56.1 Z" fill="rgb(219, 177, 94)"/><path d="M238.5 23.3 L240.1 22.7 L240.1 57.3 L238.5 56.7 Z" fill="rgb(218, 180, 96)"/><path d="M240.1 22.7 L241.8 22.1 L241.8 57.9 L240.1 57.3 Z" fill="rgb(218, 182, 98)"/><path d="M241.8 22.1 L243.4 21.7 L243.4 58.3 L241.8 57.9 Z" fill="rgb(218, 185, 99)"/><path d="M243.4 21.7 L245.1 21.4 L245.1 58.6 L243.4 58.3 Z" fill="rgb(218, 187, 101)"/><path d="M245.1 21.4 L246.7 21.3 L246.7 58.7 L245.1 58.6 Z" fill="rgb(218, 188, 101)"/><path d="M246.7 21.3 L248.4 21.2 L248.4 58.8 L246.7 58.7 Z" fill="rgb(218, 189, 102)"/><path d="M248.4 21.2 L250.0 21.1 L250.0 58.9 L248.4 58.8 Z" fill="rgb(218, 189, 102)"/><path d="M250.0 21.1 L251.6 20.9 L251.6 59.1 L250.0 58.9 Z" fill="rgb(217, 190, 103)"/><path d="M251.6 20.9 L253.3 20.6 L253.3 59.4 L251.6 59.1 Z" fill="rgb(217, 192, 104)"/><path d="M253.3 20.6 L254.9 20.2 L254.9 59.8 L253.3 59.4 Z" fill="rgb(217, 195, 106)"/><path d="M254.9 20.2 L256.6 19.8 L256.6 60.2 L254.9 59.8 Z" fill="rgb(211, 194, 108)"/><path d="M256.6 19.8 L258.2 19.3 L258.2 60.7 L256.6 60.2 Z" fill="rgb(204, 193, 111)"/><path d="M258.2 19.3 L259.9 18.9 L259.9 61.1 L258.2 60.7 Z" fill="rgb(197, 192, 115)"/><path d="M259.9 18.9 L261.5 18.4 L261.5 61.6 L259.9 61.1 Z" fill="rgb(189, 191, 118)"/><path d="M261.5 18.4 L263.2 18.0 L263.2 62.0 L261.5 61.6 Z" fill="rgb(182, 190, 121)"/><path d="M263.2 18.0 L264.8 17.5 L264.8 62.5 L263.2 62.0 Z" fill="rgb(174, 189, 124)"/><path d="M264.8 17.5 L266.4 17.2 L266.4 62.8 L264.8 62.5 Z" fill="rgb(167, 188, 127)"/><path d="M266.4 17.2 L268.1 16.9 L268.1 63.1 L266.4 62.8 Z" fill="rgb(161, 187, 130)"/><path d="M268.1 16.9 L269.7 16.7 L269.7 63.3 L268.1 63.1 Z" fill="rgb(157, 186, 132)"/><path d="M269.7 16.7 L271.4 16.6 L271.4 63.4 L269.7 63.3 Z" fill="rgb(153, 186, 134)"/><path d="M271.4 16.6 L273.0 16.5 L273.0 63.5 L271.4 63.4 Z" fill="rgb(151, 185, 134)"/><path d="M273.0 16.5 L274.7 16.5 L274.7 63.5 L273.0 63.5 Z" fill="rgb(151, 185, 135)"/><path d="M274.7 16.5 L276.3 16.3 L276.3 63.7 L274.7 63.5 Z" fill="rgb(150, 185, 135)"/><path d="M276.3 16.3 L277.9 16.1 L277.9 63.9 L276.3 63.7 Z" fill="rgb(148, 185, 136)"/><path d="M277.9 16.1 L279.6 15.8 L279.6 64.2 L277.9 63.9 Z" fill="rgb(146, 185, 137)"/><path d="M279.6 15.8 L281.2 15.5 L281.2 64.5 L279.6 64.2 Z" fill="rgb(143, 184, 138)"/><path d="M281.2 15.5 L282.9 15.2 L282.9 64.8 L281.2 64.5 Z" fill="rgb(139, 184, 139)"/><path d="M282.9 15.2 L284.5 14.8 L284.5 65.2 L282.9 64.8 Z" fill="rgb(136, 183, 141)"/><path d="M284.5 14.8 L286.2 14.5 L286.2 65.5 L284.5 65.2 Z" fill="rgb(132, 183, 143)"/><path d="M286.2 14.5 L287.8 14.1 L287.8 65.9 L286.2 65.5 Z" fill="rgb(128, 182, 144)"/><path d="M287.8 14.1 L289.5 13.8 L289.5 66.2 L287.8 65.9 Z" fill="rgb(125, 181, 146)"/><path d="M289.5 13.8 L291.1 13.5 L291.1 66.5 L289.5 66.2 Z" fill="rgb(121, 181, 147)"/><path d="M291.1 13.5 L292.7 13.3 L292.7 66.7 L291.1 66.5 Z" fill="rgb(118, 181, 149)"/><path d="M292.7 13.3 L294.4 13.1 L294.4 66.9 L292.7 66.7 Z" fill="rgb(116, 180, 150)"/><path d="M294.4 13.1 L296.0 13.0 L296.0 67.0 L294.4 66.9 Z" fill="rgb(114, 180, 151)"/><path d="M296.0 13.0 L297.7 13.0 L297.7 67.0 L296.0 67.0 Z" fill="rgb(113, 180, 151)"/><path d="M297.7 13.0 L299.3 13.0 L299.3 67.0 L297.7 67.0 Z" fill="rgb(112, 180, 151)"/><path d="M299.3 13.0 L301.0 13.0 L301.0 67.0 L299.3 67.0 Z" fill="rgb(112, 180, 151)"/><path d="M301.0 13.0 L302.6 13.0 L302.6 67.0 L301.0 67.0 Z" fill="rgb(111, 180, 152)"/><path d="M302.6 13.0 L304.2 13.1 L304.2 66.9 L302.6 67.0 Z" fill="rgb(110, 179, 152)"/><path d="M304.2 13.1 L305.9 13.1 L305.9 66.9 L304.2 66.9 Z" fill="rgb(108, 179, 153)"/><path d="M305.9 13.1 L307.5 13.1 L307.5 66.9 L305.9 66.9 Z" fill="rgb(106, 179, 154)"/><path d="M307.5 13.1 L309.2 13.2 L309.2 66.8 L307.5 66.9 Z" fill="rgb(104, 179, 155)"/><path d="M309.2 13.2 L310.0 13.2 L310.0 66.8 L309.2 66.8 Z" fill="rgb(102, 178, 155)"/>
  <path d="M10.0 13.2 L11.6 13.2 L13.3 13.2 L14.9 13.3 L16.6 13.3 L18.2 13.3 L19.9 13.3 L21.5 13.3 L23.2 13.3 L24.8 13.4 L26.4 13.5 L28.1 13.6 L29.7 13.8 L31.4 13.9 L33.0 14.1 L34.7 14.3 L36.3 14.5 L37.9 14.7 L39.6 14.9 L41.2 15.1 L42.9 15.2 L44.5 15.3 L46.2 15.4 L47.8 15.4 L49.5 15.4 L51.1 15.5 L52.7 15.6 L54.4 15.8 L56.0 15.9 L57.7 16.1 L59.3 16.3 L61.0 16.4 L62.6 16.6 L64.2 16.7 L65.9 16.9 L67.5 17.0 L69.2 17.0 L70.8 17.1 L72.5 17.1 L74.1 17.3 L75.8 17.7 L77.4 18.2 L79.0 18.8 L80.7 19.4 L82.3 20.1 L84.0 20.9 L85.6 21.6 L87.3 22.3 L88.9 22.9 L90.5 23.5 L92.2 24.0 L93.8 24.3 L95.5 24.5 L97.1 24.5 L98.8 24.5 L100.4 24.6 L102.1 24.7 L103.7 24.9 L105.3 25.0 L107.0 25.2 L108.6 25.4 L110.3 25.6 L111.9 25.7 L113.6 25.9 L115.2 26.0 L116.8 26.1 L118.5 26.2 L120.1 26.3 L121.8 26.3 L123.4 26.3 L125.1 26.4 L126.7 26.5 L128.4 26.7 L130.0 26.9 L131.6 27.1 L133.3 27.2 L134.9 27.4 L136.6 27.6 L138.2 27.8 L139.9 28.0 L141.5 28.1 L143.2 28.2 L144.8 28.3 L146.4 28.3 L148.1 28.4 L149.7 28.5 L151.4 28.6 L153.0 28.8 L154.7 29.0 L156.3 29.3 L157.9 29.6 L159.6 29.8 L161.2 30.1 L162.9 30.4 L164.5 30.6 L166.2 30.8 L167.8 31.0 L169.5 31.1 L171.1 31.1 L172.7 31.1 L174.4 31.1 L176.0 31.2 L177.7 31.2 L179.3 31.3 L181.0 31.4 L182.6 31.5 L184.2 31.6 L185.9 31.7 L187.5 31.7 L189.2 31.8 L190.8 31.9 L192.5 31.9 L194.1 32.0 L195.8 32.0 L197.4 32.0 L199.0 32.0 L200.7 31.8 L202.3 31.6 L204.0 31.4 L205.6 31.1 L207.3 30.7 L208.9 30.4 L210.5 30.1 L212.2 29.7 L213.8 29.4 L215.5 29.1 L217.1 28.9 L218.8 28.7 L220.4 28.6 L222.1 28.5 L223.7 28.4 L225.3 28.2 L227.0 27.8 L228.6 27.3 L230.3 26.7 L231.9 26.0 L233.6 25.3 L235.2 24.6 L236.8 23.9 L238.5 23.3 L240.1 22.7 L241.8 22.1 L243.4 21.7 L245.1 21.4 L246.7 21.3 L248.4 21.2 L250.0 21.1 L251.6 20.9 L253.3 20.6 L254.9 20.2 L256.6 19.8 L258.2 19.3 L259.9 18.9 L261.5 18.4 L263.2 18.0 L264.8 17.5 L266.4 17.2 L268.1 16.9 L269.7 16.7 L271.4 16.6 L273.0 16.5 L274.7 16.5 L276.3 16.3 L277.9 16.1 L279.6 15.8 L281.2 15.5 L282.9 15.2 L284.5 14.8 L286.2 14.5 L287.8 14.1 L289.5 13.8 L291.1 13.5 L292.7 13.3 L294.4 13.1 L296.0 13.0 L297.7 13.0 L299.3 13.0 L301.0 13.0 L302.6 13.0 L304.2 13.1 L305.9 13.1 L307.5 13.1 L309.2 13.2 L309.2 66.8 L307.5 66.9 L305.9 66.9 L304.2 66.9 L302.6 67.0 L301.0 67.0 L299.3 67.0 L297.7 67.0 L296.0 67.0 L294.4 66.9 L292.7 66.7 L291.1 66.5 L289.5 66.2 L287.8 65.9 L286.2 65.5 L284.5 65.2 L282.9 64.8 L281.2 64.5 L279.6 64.2 L277.9 63.9 L276.3 63.7 L274.7 63.5 L273.0 63.5 L271.4 63.4 L269.7 63.3 L268.1 63.1 L266.4 62.8 L264.8 62.5 L263.2 62.0 L261.5 61.6 L259.9 61.1 L258.2 60.7 L256.6 60.2 L254.9 59.8 L253.3 59.4 L251.6 59.1 L250.0 58.9 L248.4 58.8 L246.7 58.7 L245.1 58.6 L243.4 58.3 L241.8 57.9 L240.1 57.3 L238.5 56.7 L236.8 56.1 L235.2 55.4 L233.6 54.7 L231.9 54.0 L230.3 53.3 L228.6 52.7 L227.0 52.2 L225.3 51.8 L223.7 51.6 L222.1 51.5 L220.4 51.4 L218.8 51.3 L217.1 51.1 L215.5 50.9 L213.8 50.6 L212.2 50.3 L210.5 49.9 L208.9 49.6 L207.3 49.3 L205.6 48.9 L204.0 48.6 L202.3 48.4 L200.7 48.2 L199.0 48.0 L197.4 48.0 L195.8 48.0 L194.1 48.0 L192.5 48.1 L190.8 48.1 L189.2 48.2 L187.5 48.3 L185.9 48.3 L184.2 48.4 L182.6 48.5 L181.0 48.6 L179.3 48.7 L177.7 48.8 L176.0 48.8 L174.4 48.9 L172.7 48.9 L171.1 48.9 L169.5 48.9 L167.8 49.0 L166.2 49.2 L164.5 49.4 L162.9 49.6 L161.2 49.9 L159.6 50.2 L157.9 50.4 L156.3 50.7 L154.7 51.0 L153.0 51.2 L151.4 51.4 L149.7 51.5 L148.1 51.6 L146.4 51.7 L144.8 51.7 L143.2 51.8 L141.5 51.9 L139.9 52.0 L138.2 52.2 L136.6 52.4 L134.9 52.6 L133.3 52.8 L131.6 52.9 L130.0 53.1 L128.4 53.3 L126.7 53.5 L125.1 53.6 L123.4 53.7 L121.8 53.7 L120.1 53.7 L118.5 53.8 L116.8 53.9 L115.2 54.0 L113.6 54.1 L111.9 54.3 L110.3 54.4 L108.6 54.6 L107.0 54.8 L105.3 55.0 L103.7 55.1 L102.1 55.3 L100.4 55.4 L98.8 55.5 L97.1 55.5 L95.5 55.5 L93.8 55.7 L92.2 56.0 L90.5 56.5 L88.9 57.1 L87.3 57.7 L85.6 58.4 L84.0 59.1 L82.3 59.9 L80.7 60.6 L79.0 61.2 L77.4 61.8 L75.8 62.3 L74.1 62.7 L72.5 62.9 L70.8 62.9 L69.2 63.0 L67.5 63.0 L65.9 63.1 L64.2 63.3 L62.6 63.4 L61.0 63.6 L59.3 63.7 L57.7 63.9 L56.0 64.1 L54.4 64.2 L52.7 64.4 L51.1 64.5 L49.5 64.6 L47.8 64.6 L46.2 64.6 L44.5 64.7 L42.9 64.8 L41.2 64.9 L39.6 65.1 L37.9 65.3 L36.3 65.5 L34.7 65.7 L33.0 65.9 L31.4 66.1 L29.7 66.2 L28.1 66.4 L26.4 66.5 L24.8 66.6 L23.2 66.7 L21.5 66.7 L19.9 66.7 L18.2 66.7 L16.6 66.7 L14.9 66.7 L13.3 66.8 L11.6 66.8 L10.0 66.8 Z" fill="none" stroke="#1a1a1a" stroke-opacity="0.22" stroke-width="0.8" stroke-linejoin="round"/>
</svg>
