<?xml version="1.0" encoding="UTF-8"?>
<svg xmlns="http://www.w3.org/2000/svg" viewBox="0 0 320 80" role="img">
  <title>Phoenix seasonal climate ribbon</title>
  <path d="M10.0 18.6 L11.6 18.4 L11.6 61.6 L10.0 61.4 Z" fill="rgb(218, 182, 97)"/><path d="M11.6 18.4 L13.3 18.1 L13.3 61.9 L11.6 61.6 Z" fill="rgb(218, 181, 97)"/><path d="M13.3 18.1 L14.9 17.9 L14.9 62.1 L13.3 61.9 Z" fill="rgb(218, 181, 97)"/><path d="M14.9 17.9 L16.6 17.7 L16.6 62.3 L14.9 62.1 Z" fill="rgb(218, 181, 97)"/><path d="M16.6 17.7 L18.2 17.6 L18.2 62.4 L16.6 62.3 Z" fill="rgb(218, 180, 96)"/><path d="M18.2 17.6 L19.9 17.5 L19.9 62.5 L18.2 62.4 Z" fill="rgb(218, 180, 96)"/><path d="M19.9 17.5 L21.5 17.4 L21.5 62.6 L19.9 62.5 Z" fill="rgb(218, 180, 96)"/><path d="M21.5 17.4 L23.2 17.4 L23.2 62.6 L21.5 62.6 Z" fill="rgb(218, 180, 96)"/><path d="M23.2 17.4 L24.8 17.3 L24.8 62.7 L23.2 62.6 Z" fill="rgb(218, 180, 96)"/><path d="M24.8 17.3 L26.4 17.3 L26.4 62.7 L24.8 62.7 Z" fill="rgb(218, 180, 96)"/><path d="M26.4 17.3 L28.1 17.2 L28.1 62.8 L26.4 62.7 Z" fill="rgb(219, 179, 95)"/><path d="M28.1 17.2 L29.7 17.0 L29.7 63.0 L28.1 62.8 Z" fill="rgb(219, 178, 95)"/><path d="M29.7 17.0 L31.4 16.9 L31.4 63.1 L29.7 63.0 Z" fill="rgb(219, 177, 94)"/><path d="M31.4 16.9 L33.0 16.7 L33.0 63.3 L31.4 63.1 Z" fill="rgb(219, 176, 94)"/><path d="M33.0 16.7 L34.7 16.6 L34.7 63.4 L33.0 63.3 Z" fill="rgb(219, 175, 93)"/><path d="M34.7 16.6 L36.3 16.4 L36.3 63.6 L34.7 63.4 Z" fill="rgb(219, 173, 92)"/><path d="M36.3 16.4 L37.9 16.2 L37.9 63.8 L36.3 63.6 Z" fill="rgb(219, 172, 91)"/><path d="M37.9 16.2 L39.6 16.1 L39.6 63.9 L37.9 63.8 Z" fill="rgb(219, 171, 90)"/><path d="M39.6 16.1 L41.2 16.0 L41.2 64.0 L39.6 63.9 Z" fill="rgb(219, 170, 89)"/><path d="M41.2 16.0 L42.9 15.9 L42.9 64.1 L41.2 64.0 Z" fill="rgb(220, 169, 89)"/><path d="M42.9 15.9 L44.5 15.8 L44.5 64.2 L42.9 64.1 Z" fill="rgb(220, 168, 88)"/><path d="M44.5 15.8 L46.2 15.7 L46.2 64.3 L44.5 64.2 Z" fill="rgb(220, 167, 88)"/><path d="M46.2 15.7 L47.8 15.7 L47.8 64.3 L46.2 64.3 Z" fill="rgb(220, 167, 88)"/><path d="M47.8 15.7 L49.5 15.8 L49.5 64.2 L47.8 64.3 Z" fill="rgb(220, 167, 87)"/><path d="M49.5 15.8 L51.1 15.9 L51.1 64.1 L49.5 64.2 Z" fill="rgb(220, 166, 87)"/><path d="M51.1 15.9 L52.7 16.0 L52.7 64.0 L51.1 64.1 Z" fill="rgb(220, 165, 86)"/><path d="M52.7 16.0 L54.4 16.1 L54.4 63.9 L52.7 64.0 Z" fill="rgb(220, 163, 85)"/><path d="M54.4 16.1 L56.0 16.2 L56.0 63.8 L54.4 63.9 Z" fill="rgb(220, 161, 84)"/><path d="M56.0 16.2 L57.7 16.4 L57.7 63.6 L56.0 63.8 Z" fill="rgb(220, 159, 82)"/><path d="M57.7 16.4 L59.3 16.6 L59.3 63.4 L57.7 63.6 Z" fill="rgb(221, 157, 81)"/><path d="M59.3 16.6 L61.0 16.7 L61.0 63.3 L59.3 63.4 Z" fill="rgb(221, 154, 79)"/><path d="M61.0 16.7 L62.6 16.9 L62.6 63.1 L61.0 63.3 Z" fill="rgb(221, 152, 78)"/><path d="M62.6 16.9 L64.2 17.0 L64.2 63.0 L62.6 63.1 Z" fill="rgb(221, 149, 76)"/><path d="M64.2 17.0 L65.9 17.2 L65.9 62.8 L64.2 63.0 Z" fill="rgb(222, 147, 74)"/><path d="M65.9 17.2 L67.5 17.3 L67.5 62.7 L65.9 62.8 Z" fill="rgb(222, 145, 73)"/><path d="M67.5 17.3 L69.2 17.3 L69.2 62.7 L67.5 62.7 Z" fill="rgb(222, 144, 72)"/><path d="M69.2 17.3 L70.8 17.4 L70.8 62.6 L69.2 62.7 Z" fill="rgb(222, 143, 72)"/><path d="M70.8 17.4 L72.5 17.5 L72.5 62.5 L70.8 62.6 Z" fill="rgb(222, 142, 71)"/><path d="M72.5 17.5 L74.1 18.0 L74.1 62.0 L72.5 62.5 Z" fill="rgb(222, 142, 71)"/><path d="M74.1 18.0 L75.8 18.7 L75.8 61.3 L74.1 62.0 Z" fill="rgb(222, 141, 71)"/><path d="M75.8 18.7 L77.4 19.8 L77.4 60.2 L75.8 61.3 Z" fill="rgb(222, 140, 70)"/><path d="M77.4 19.8 L79.0 21.1 L79.0 58.9 L77.4 60.2 Z" fill="rgb(222, 138, 68)"/><path d="M79.0 21.1 L80.7 22.5 L80.7 57.5 L79.0 58.9 Z" fill="rgb(223, 136, 67)"/><path d="M80.7 22.5 L82.3 24.0 L82.3 56.0 L80.7 57.5 Z" fill="rgb(223, 133, 65)"/><path d="M82.3 24.0 L84.0 25.6 L84.0 54.4 L82.3 56.0 Z" fill="rgb(223, 130, 64)"/><path d="M84.0 25.6 L85.6 27.2 L85.6 52.8 L84.0 54.4 Z" fill="rgb(223, 128, 62)"/><path d="M85.6 27.2 L87.3 28.7 L87.3 51.3 L85.6 52.8 Z" fill="rgb(224, 125, 60)"/><path d="M87.3 28.7 L88.9 30.1 L88.9 49.9 L87.3 51.3 Z" fill="rgb(224, 122, 58)"/><path d="M88.9 30.1 L90.5 31.3 L90.5 48.7 L88.9 49.9 Z" fill="rgb(224, 121, 58)"/><path d="M90.5 31.3 L92.2 32.3 L92.2 47.7 L90.5 48.7 Z" fill="rgb(224, 119, 57)"/><path d="M92.2 32.3 L93.8 33.0 L93.8 47.0 L92.2 47.7 Z" fill="rgb(224, 118, 57)"/><path d="M93.8 33.0 L95.5 33.4 L95.5 46.6 L93.8 47.0 Z" fill="rgb(224, 117, 57)"/><path d="M95.5 33.4 L97.1 33.5 L97.1 46.5 L95.5 46.6 Z" fill="rgb(225, 117, 57)"/><path d="M97.1 33.5 L98.8 33.5 L98.8 46.5 L97.1 46.5 Z" fill="rgb(225, 117, 57)"/><path d="M98.8 33.5 L100.4 33.7 L100.4 46.3 L98.8 46.5 Z" fill="rgb(225, 116, 57)"/><path d="M100.4 33.7 L102.1 33.9 L102.1 46.1 L100.4 46.3 Z" fill="rgb(225, 115, 57)"/><path d="M102.1 33.9 L103.7 34.1 L103.7 45.9 L102.1 46.1 Z" fill="rgb(225, 114, 56)"/><path d="M103.7 34.1 L105.3 34.4 L105.3 45.6 L103.7 45.9 Z" fill="rgb(225, 112, 56)"/><path d="M105.3 34.4 L107.0 34.7 L107.0 45.3 L105.3 45.6 Z" fill="rgb(225, 110, 56)"/><path d="M107.0 34.7 L108.6 35.1 L108.6 44.9 L107.0 45.3 Z" fill="rgb(225, 108, 55)"/><path d="M108.6 35.1 L110.3 35.4 L110.3 44.6 L108.6 44.9 Z" fill="rgb(226, 106, 55)"/><path d="M110.3 35.4 L111.9 35.7 L111.9 44.3 L110.3 44.6 Z" fill="rgb(226, 104, 54)"/><path d="M111.9 35.7 L113.6 36.0 L113.6 44.0 L111.9 44.3 Z" fill="rgb(226, 102, 54)"/><path d="M113.6 36.0 L115.2 36.2 L115.2 43.8 L113.6 44.0 Z" fill="rgb(226, 100, 53)"/><path d="M115.2 36.2 L116.8 36.4 L116.8 43.6 L115.2 43.8 Z" fill="rgb(226, 98, 53)"/><path d="M116.8 36.4 L118.5 36.6 L118.5 43.4 L116.8 43.6 Z" fill="rgb(227, 97, 53)"/><path d="M118.5 36.6 L120.1 36.7 L120.1 43.3 L118.5 43.4 Z" fill="rgb(227, 96, 53)"/><path d="M120.1 36.7 L121.8 36.7 L121.8 43.3 L120.1 43.3 Z" fill="rgb(227, 95, 52)"/><path d="M121.8 36.7 L123.4 36.8 L123.4 43.2 L121.8 43.3 Z" fill="rgb(227, 95, 52)"/><path d="M123.4 36.8 L125.1 36.9 L125.1 43.1 L123.4 43.2 Z" fill="rgb(227, 95, 52)"/><path d="M125.1 36.9 L126.7 37.0 L126.7 43.0 L125.1 43.1 Z" fill="rgb(227, 94, 52)"/><path d="M126.7 37.0 L128.4 37.2 L128.4 42.8 L126.7 43.0 Z" fill="rgb(227, 92, 52)"/><path d="M128.4 37.2 L130.0 37.5 L130.0 42.5 L128.4 42.8 Z" fill="rgb(227, 91, 52)"/><path d="M130.0 37.5 L131.6 37.7 L131.6 42.3 L130.0 42.5 Z" fill="rgb(227, 89, 51)"/><path d="M131.6 37.7 L133.3 38.0 L133.3 42.0 L131.6 42.3 Z" fill="rgb(228, 87, 51)"/><path d="M133.3 38.0 L134.9 38.3 L134.9 41.7 L133.3 42.0 Z" fill="rgb(228, 85, 50)"/><path d="M134.9 38.3 L136.6 38.5 L136.6 41.5 L134.9 41.7 Z" fill="rgb(228, 83, 50)"/><path d="M136.6 38.5 L138.2 38.8 L138.2 41.2 L136.6 41.5 Z" fill="rgb(228, 80, 49)"/><path d="M138.2 38.8 L139.9 39.0 L139.9 41.0 L138.2 41.2 Z" fill="rgb(229, 78, 49)"/><path d="M139.9 39.0 L141.5 39.2 L141.5 40.8 L139.9 41.0 Z" fill="rgb(229, 77, 49)"/><path d="M141.5 39.2 L143.2 39.3 L143.2 40.7 L141.5 40.8 Z" fill="rgb(229, 75, 48)"/><path d="M143.2 39.3 L144.8 39.4 L144.8 40.6 L143.2 40.7 Z" fill="rgb(229, 74, 48)"/><path d="M144.8 39.4 L146.4 39.5 L146.4 40.5 L144.8 40.6 Z" fill="rgb(229, 73, 48)"/><path d="M146.4 39.5 L148.1 39.1 L148.1 40.9 L146.4 40.5 Z" fill="rgb(229, 73, 48)"/><path d="M148.1 39.1 L149.7 38.2 L149.7 41.8 L148.1 40.9 Z" fill="rgb(229, 73, 48)"/><path d="M149.7 38.2 L151.4 36.8 L151.4 43.2 L149.7 41.8 Z" fill="rgb(229, 72, 48)"/><path d="M151.4 36.8 L153.0 34.9 L153.0 45.1 L151.4 43.2 Z" fill="rgb(229, 72, 48)"/><path d="M153.0 34.9 L154.7 32.8 L154.7 47.2 L153.0 45.1 Z" fill="rgb(229, 71, 47)"/><path d="M154.7 32.8 L156.3 30.4 L156.3 49.6 L154.7 47.2 Z" fill="rgb(229, 70, 47)"/><path d="M156.3 30.4 L157.9 27.8 L157.9 52.2 L156.3 49.6 Z" fill="rgb(229, 70, 47)"/><path d="M157.9 27.8 L159.6 25.3 L159.6 54.7 L157.9 52.2 Z" fill="rgb(230, 69, 47)"/><path d="M159.6 25.3 L161.2 22.7 L161.2 57.3 L159.6 54.7 Z" fill="rgb(230, 68, 47)"/><path d="M161.2 22.7 L162.9 20.2 L162.9 59.8 L161.2 57.3 Z" fill="rgb(230, 67, 47)"/><path d="M162.9 20.2 L164.5 18.0 L164.5 62.0 L162.9 59.8 Z" fill="rgb(230, 66, 46)"/><path d="M164.5 18.0 L166.2 16.1 L166.2 63.9 L164.5 62.0 Z" fill="rgb(230, 65, 46)"/><path d="M166.2 16.1 L167.8 14.6 L167.8 65.4 L166.2 63.9 Z" fill="rgb(230, 64, 46)"/><path d="M167.8 14.6 L169.5 13.5 L169.5 66.5 L167.8 65.4 Z" fill="rgb(230, 64, 46)"/><path d="M169.5 13.5 L171.1 13.0 L171.1 67.0 L169.5 66.5 Z" fill="rgb(230, 64, 46)"/><path d="M171.1 13.0 L172.7 13.0 L172.7 67.0 L171.1 67.0 Z" fill="rgb(230, 64, 46)"/><path d="M172.7 13.0 L174.4 13.0 L174.4 67.0 L172.7 67.0 Z" fill="rgb(230, 64, 46)"/><path d="M174.4 13.0 L176.0 13.1 L176.0 66.9 L174.4 67.0 Z" fill="rgb(230, 64, 46)"/><path d="M176.0 13.1 L177.7 13.2 L177.7 66.8 L176.0 66.9 Z" fill="rgb(230, 64, 46)"/><path d="M177.7 13.2 L179.3 13.3 L179.3 66.7 L177.7 66.8 Z" fill="rgb(230, 64, 46)"/><path d="M179.3 13.3 L181.0 13.4 L181.0 66.6 L179.3 66.7 Z" fill="rgb(230, 64, 46)"/><path d="M181.0 13.4 L182.6 13.6 L182.6 66.4 L181.0 66.6 Z" fill="rgb(230, 64, 46)"/><path d="M182.6 13.6 L184.2 13.7 L184.2 66.3 L182.6 66.4 Z" fill="rgb(230, 64, 46)"/><path d="M184.2 13.7 L185.9 13.8 L185.9 66.2 L184.2 66.3 Z" fill="rgb(230, 65, 46)"/><path d="M185.9 13.8 L187.5 13.9 L187.5 66.1 L185.9 66.2 Z" fill="rgb(230, 65, 46)"/><path d="M187.5 13.9 L189.2 14.1 L189.2 65.9 L187.5 66.1 Z" fill="rgb(230, 65, 46)"/><path d="M189.2 14.1 L190.8 14.2 L190.8 65.8 L189.2 65.9 Z" fill="rgb(230, 65, 46)"/><path d="M190.8 14.2 L192.5 14.3 L192.5 65.7 L190.8 65.8 Z" fill="rgb(230, 66, 46)"/><path d="M192.5 14.3 L194.1 14.3 L194.1 65.7 L192.5 65.7 Z" fill="rgb(230, 66, 46)"/><path d="M194.1 14.3 L195.8 14.4 L195.8 65.6 L194.1 65.7 Z" fill="rgb(230, 66, 46)"/><path d="M195.8 14.4 L197.4 14.4 L197.4 65.6 L195.8 65.6 Z" fill="rgb(230, 66, 46)"/><path d="M197.4 14.4 L199.0 14.5 L199.0 65.5 L197.4 65.6 Z" fill="rgb(230, 66, 46)"/><path d="M199.0 14.5 L200.7 14.8 L200.7 65.2 L199.0 65.5 Z" fill="rgb(230, 66, 47)"/><path d="M200.7 14.8 L202.3 15.3 L202.3 64.7 L200.7 65.2 Z" fill="rgb(230, 67, 47)"/><path d="M202.3 15.3 L204.0 15.9 L204.0 64.1 L202.3 64.7 Z" fill="rgb(230, 68, 47)"/><path d="M204.0 15.9 L205.6 16.6 L205.6 63.4 L204.0 64.1 Z" fill="rgb(230, 69, 47)"/><path d="M205.6 16.6 L207.3 17.4 L207.3 62.6 L205.6 63.4 Z" fill="rgb(229, 70, 47)"/><path d="M207.3 17.4 L208.9 18.2 L208.9 61.8 L207.3 62.6 Z" fill="rgb(229, 71, 47)"/><path d="M208.9 18.2 L210.5 19.0 L210.5 61.0 L208.9 61.8 Z" fill="rgb(229, 72, 48)"/><path d="M210.5 19.0 L212.2 19.7 L212.2 60.3 L210.5 61.0 Z" fill="rgb(229, 74, 48)"/><path d="M212.2 19.7 L213.8 20.5 L213.8 59.5 L212.2 60.3 Z" fill="rgb(229, 75, 48)"/><path d="M213.8 20.5 L215.5 21.2 L215.5 58.8 L213.8 59.5 Z" fill="rgb(229, 76, 48)"/><path d="M215.5 21.2 L217.1 21.7 L217.1 58.3 L215.5 58.8 Z" fill="rgb(229, 77, 49)"/><path d="M217.1 21.7 L218.8 22.2 L218.8 57.8 L217.1 58.3 Z" fill="rgb(229, 78, 49)"/><path d="M218.8 22.2 L220.4 22.4 L220.4 57.6 L218.8 57.8 Z" fill="rgb(228, 79, 49)"/><path d="M220.4 22.4 L222.1 22.5 L222.1 57.5 L220.4 57.6 Z" fill="rgb(228, 79, 49)"/><path d="M222.1 22.5 L223.7 22.6 L223.7 57.4 L222.1 57.5 Z" fill="rgb(228, 79, 49)"/><path d="M223.7 22.6 L225.3 22.6 L225.3 57.4 L223.7 57.4 Z" fill="rgb(228, 80, 49)"/><path d="M225.3 22.6 L227.0 22.7 L227.0 57.3 L225.3 57.4 Z" fill="rgb(228, 81, 49)"/><path d="M227.0 22.7 L228.6 22.8 L228.6 57.2 L227.0 57.3 Z" fill="rgb(228, 82, 50)"/><path d="M228.6 22.8 L230.3 23.0 L230.3 57.0 L228.6 57.2 Z" fill="rgb(228, 84, 50)"/><path d="M230.3 23.0 L231.9 23.1 L231.9 56.9 L230.3 57.0 Z" fill="rgb(228, 87, 51)"/><path d="M231.9 23.1 L233.6 23.3 L233.6 56.7 L231.9 56.9 Z" fill="rgb(227, 89, 51)"/><path d="M233.6 23.3 L235.2 23.4 L235.2 56.6 L233.6 56.7 Z" fill="rgb(227, 92, 52)"/><path d="M235.2 23.4 L236.8 23.6 L236.8 56.4 L235.2 56.6 Z" fill="rgb(227, 95, 52)"/><path d="M236.8 23.6 L238.5 23.7 L238.5 56.3 L236.8 56.4 Z" fill="rgb(227, 98, 53)"/><path d="M238.5 23.7 L240.1 23.9 L240.1 56.1 L238.5 56.3 Z" fill="rgb(226, 100, 53)"/><path d="M240.1 23.9 L241.8 24.0 L241.8 56.0 L240.1 56.1 Z" fill="rgb(226, 103, 54)"/><path d="M241.8 24.0 L243.4 24.1 L243.4 55.9 L241.8 56.0 Z" fill="rgb(226, 105, 54)"/><path d="M243.4 24.1 L245.1 24.2 L245.1 55.8 L243.4 55.9 Z" fill="rgb(226, 106, 55)"/><path d="M245.1 24.2 L246.7 24.2 L246.7 55.8 L245.1 55.8 Z" fill="rgb(225, 108, 55)"/><path d="M246.7 24.2 L248.4 24.2 L248.4 55.8 L246.7 55.8 Z" fill="rgb(225, 108, 55)"/><path d="M248.4 24.2 L250.0 24.2 L250.0 55.8 L248.4 55.8 Z" fill="rgb(225, 108, 55)"/><path d="M250.0 24.2 L251.6 24.2 L251.6 55.8 L250.0 55.8 Z" fill="rgb(225, 109, 55)"/><path d="M251.6 24.2 L253.3 24.2 L253.3 55.8 L251.6 55.8 Z" fill="rgb(225, 111, 56)"/><path d="M253.3 24.2 L254.9 24.2 L254.9 55.8 L253.3 55.8 Z" fill="rgb(225, 113, 56)"/><path d="M254.9 24.2 L256.6 24.3 L256.6 55.7 L254.9 55.8 Z" fill="rgb(225, 115, 57)"/><path d="M256.6 24.3 L258.2 24.3 L258.2 55.7 L256.6 55.7 Z" fill="rgb(224, 118, 57)"/><path d="M258.2 24.3 L259.9 24.3 L259.9 55.7 L258.2 55.7 Z" fill="rgb(224, 121, 58)"/><path d="M259.9 24.3 L261.5 24.3 L261.5 55.7 L259.9 55.7 Z" fill="rgb(224, 125, 60)"/><path d="M261.5 24.3 L263.2 24.4 L263.2 55.6 L261.5 55.7 Z" fill="rgb(223, 130, 63)"/><path d="M263.2 24.4 L264.8 24.4 L264.8 55.6 L263.2 55.6 Z" fill="rgb(223, 134, 66)"/><path d="M264.8 24.4 L266.4 24.4 L266.4 55.6 L264.8 55.6 Z" fill="rgb(222, 139, 69)"/><path d="M266.4 24.4 L268.1 24.4 L268.1 55.6 L266.4 55.6 Z" fill="rgb(222, 142, 71)"/><path d="M268.1 24.4 L269.7 24.4 L269.7 55.6 L268.1 55.6 Z" fill="rgb(222, 145, 73)"/><path d="M269.7 24.4 L271.4 24.5 L271.4 55.5 L269.7 55.6 Z" fill="rgb(222, 148, 75)"/><path d="M271.4 24.5 L273.0 24.4 L273.0 55.6 L271.4 55.5 Z" fill="rgb(221, 149, 76)"/><path d="M273.0 24.4 L274.7 24.3 L274.7 55.7 L273.0 55.6 Z" fill="rgb(221, 149, 76)"/><path d="M274.7 24.3 L276.3 24.1 L276.3 55.9 L274.7 55.7 Z" fill="rgb(221, 150, 76)"/><path d="M276.3 24.1 L277.9 23.8 L277.9 56.2 L276.3 55.9 Z" fill="rgb(221, 151, 77)"/><path d="M277.9 23.8 L279.6 23.5 L279.6 56.5 L277.9 56.2 Z" fill="rgb(221, 154, 79)"/><path d="M279.6 23.5 L281.2 23.1 L281.2 56.9 L279.6 56.5 Z" fill="rgb(221, 156, 80)"/><path d="M281.2 23.1 L282.9 22.6 L282.9 57.4 L281.2 56.9 Z" fill="rgb(220, 159, 82)"/><path d="M282.9 22.6 L284.5 22.2 L284.5 57.8 L282.9 57.4 Z" fill="rgb(220, 162, 85)"/><path d="M284.5 22.2 L286.2 21.7 L286.2 58.3 L284.5 57.8 Z" fill="rgb(220, 166, 87)"/><path d="M286.2 21.7 L287.8 21.3 L287.8 58.7 L286.2 58.3 Z" fill="rgb(219, 169, 89)"/><path d="M287.8 21.3 L289.5 20.9 L289.5 59.1 L287.8 58.7 Z" fill="rgb(219, 172, 91)"/><path d="M289.5 20.9 L291.1 20.5 L291.1 59.5 L289.5 59.1 Z" fill="rgb(219, 176, 93)"/><path d="M291.1 20.5 L292.7 20.2 L292.7 59.8 L291.1 59.5 Z" fill="rgb(219, 178, 95)"/><path d="M292.7 20.2 L294.4 20.0 L294.4 60.0 L292.7 59.8 Z" fill="rgb(218, 181, 96)"/><path d="M294.4 20.0 L296.0 19.9 L296.0 60.1 L294.4 60.0 Z" fill="rgb(218, 182, 98)"/><path d="M296.0 19.9 L297.7 19.8 L297.7 60.2 L296.0 60.1 Z" fill="rgb(218, 183, 98)"/><path d="M297.7 19.8 L299.3 19.8 L299.3 60.2 L297.7 60.2 Z" fill="rgb(218, 183, 98)"/><path d="M299.3 19.8 L301.0 19.7 L301.0 60.3 L299.3 60.2 Z" fill="rgb(218, 183, 98)"/><path d="M301.0 19.7 L302.6 19.5 L302.6 60.5 L301.0 60.3 Z" fill="rgb(218, 183, 98)"/><path d="M302.6 19.5 L304.2 19.4 L304.2 60.6 L302.6 60.5 Z" fill="rgb(218, 183, 98)"/><path d="M304.2 19.4 L305.9 19.2 L305.9 60.8 L304.2 60.6 Z" fill="rgb(218, 183, 98)"/><path d="M305.9 19.2 L307.5 18.9 L307.5 61.1 L305.9 60.8 Z" fill="rgb(218, 182, 98)"/><path d="M307.5 18.9 L309.2 18.7 L309.2 61.3 L307.5 61.1 Z" fill="rgb(218, 182, 98)"/><path d="M309.2 18.7 L310.0 18.7 L310.0 61.3 L309.2 61.3 Z" fill="rgb(218, 182, 97)"/>
  <path d="M10.0 18.6 L11.6 18.4 L13.3 18.1 L14.9 17.9 L16.6 17.7 L18.2 17.6 L19.9 17.5 L21.5 17.4 L23.2 17.4 L24.8 17.3 L26.4 17.3 L28.1 17.2 L29.7 17.0 L31.4 16.9 L33.0 16.7 L34.7 16.6 L36.3 16.4 L37.9 16.2 L39.6 16.1 L41.2 16.0 L42.9 15.9 L44.5 15.8 L46.2 15.7 L47.8 15.7 L49.5 15.8 L51.1 15.9 L52.7 16.0 L54.4 16.1 L56.0 16.2 L57.7 16.4 L59.3 16.6 L61.0 16.7 L62.6 16.9 L64.2 17.0 L65.9 17.2 L67.5 17.3 L69.2 17.3 L70.8 17.4 L72.5 17.5 L74.1 18.0 L75.8 18.7 L77.4 19.8 L79.0 21.1 L80.7 22.5 L82.3 24.0 L84.0 25.6 L85.6 27.2 L87.3 28.7 L88.9 30.1 L90.5 31.3 L92.2 32.3 L93.8 33.0 L95.5 33.4 L97.1 33.5 L98.8 33.5 L100.4 33.7 L102.1 33.9 L103.7 34.1 L105.3 34.4 L107.0 34.7 L108.6 35.1 L110.3 35.4 L111.9 35.7 L113.6 36.0 L115.2 36.2 L116.8 36.4 L118.5 36.6 L120.1 36.7 L121.8 36.7 L123.4 36.8 L125.1 36.9 L126.7 37.0 L128.4 37.2 L130.0 37.5 L131.6 37.7 L133.3 38.0 L134.9 38.3 L136.6 38.5 L138.2 38.8 L139.9 39.0 L141.5 39.2 L143.2 39.3 L144.8 39.4 L146.4 39.5 L148.1 39.1 L149.7 38.2 L151.4 36.8 L153.0 34.9 L154.7 32.8 L156.3 30.4 L157.9 27.8 L159.6 25.3 L161.2 22.7 L162.9 20.2 L164.5 18.0 L166.2 16.1 L167.8 14.6 L169.5 13.5 L171.1 13.0 L172.7 13.0 L174.4 13.0 L176.0 13.1 L177.7 13.2 L179.3 13.3 L181.0 13.4 L182.6 13.6 L184.2 13.7 L185.9 13.8 L187.5 13.9 L189.2 14.1 L190.8 14.2 L192.5 14.3 L194.1 14.3 L195.8 14.4 L197.4 14.4 L199.0 14.5 L200.7 14.8 L202.3 15.3 L204.0 15.9 L205.6 16.6 L207.3 17.4 L208.9 18.2 L210.5 19.0 L212.2 19.7 L213.8 20.5 L215.5 21.2 L217.1 21.7 L218.8 22.2 L220.4 22.4 L222.1 22.5 L223.7 22.6 L225.3 22.6 L227.0 22.7 L228.6 22.8 L230.3 23.0 L231.9 23.1 L233.6 23.3 L235.2 23.4 L236.8 23.6 L238.5 23.7 L240.1 23.9 L241.8 24.0 L243.4 24.1 L245.1 24.2 L246.7 24.2 L248.4 24.2 L250.0 24.2 L251.6 24.2 L253.3 24.2 L254.9 24.2 L256.6 24.3 L258.2 24.3 L259.9 24.3 L261.5 24.3 L263.2 24.4 L264.8 24.4 L266.4 24.4 L268.1 24.4 L269.7 24.4 L271.4 24.5 L273.0 24.4 L274.7 24.3 L276.3 24.1 L277.9 23.8 L279.6 23.5 L281.2 23.1 L282.9 22.6 L284.5 22.2 L286.2 21.7 L287.8 21.3 L289.5 20.9 L291.1 20.5 L292.7 20.2 L294.4 20.0 L296.0 19.9 L297.7 19.8 L299.3 19.8 L301.0 19.7 L302.6 19.5 L304.2 19.4 L305.9 19.2 L307.5 18.9 L309.2 18.7 L309.2 61.3 L307.5 61.1 L305.9 60.8 L304.2 60.6 L302.6 60.5 L301.0 60.3 L299.3 60.2 L297.7 60.2 L296.0 60.1 L294.4 60.0 L292.7 59.8 L291.1 59.5 L289.5 59.1 L287.8 58.7 L286.2 58.3 L284.5 57.8 L282.9 57.4 L281.2 56.9 L279.6 56.5 L277.9 56.2 L276.3 55.9 L274.7 55.7 L273.0 55.6 L271.4 55.5 L269.7 55.6 L268.1 55.6 L266.4 55.6 L264.8 55.6 L263.2 55.6 L261.5 55.7 L259.9 55.7 L258.2 55.7 L256.6 55.7 L254.9 55.8 L253.3 55.8 L251.6 55.8 L250.0 55.8 L248.4 55.8 L246.7 55.8 L245.1 55.8 L243.4 55.9 L241.8 56.0 L240.1 56.1 L238.5 56.3 L236.8 56.4 L235.2 56.6 L233.6 56.7 L231.9 56.9 L230.3 57.0 L228.6 57.2 L227.0 57.3 L225.3 57.4 L223.7 57.4 L222.1 57.5 L220.4 57.6 L218.8 57.8 L217.1 58.3 L215.5 58.8 L213.8 59.5 L212.2 60.3 L210.5 61.0 L208.9 61.8 L207.3 62.6 L205.6 63.4 L204.0 64.1 L202.3 64.7 L200.7 65.2 L199.0 65.5 L197.4 65.6 L195.8 65.6 L194.1 65.7 L192.5 65.7 L190.8 65.8 L189.2 65.9 L187.5 66.1 L185.9 66.2 L184.2 66.3 L182.6 66.4 L181.0 66.6 L179.3 66.7 L177.7 66.8 L176.0 66.9 L174.4 67.0 L172.7 67.0 L171.1 67.0 L169.5 66.5 L167.8 65.4 L166.2 63.9 L164.5 62.0 L162.9 59.8 L161.2 57.3 L159.6 54.7 L157.9 52.2 L156.3 49.6 L154.7 47.2 L153.0 45.1 L151.4 43.2 L149.7 41.8 L148.1 40.9 L146.4 40.5 L144.8 40.6 L143.2 40.7 L141.5 40.8 L139.9 41.0 L138.2 41.2 L136.6 41.5 L134.9 41.7 L133.3 42.0 L131.6 42.3 L130.0 42.5 L128.4 42.8 L126.7 43.0 L125.1 43.1 L123.4 43.2 L121.8 43.3 L120.1 43.3 L118.5 43.4 L116.8 43.6 L115.2 43.8 L113.6 44.0 L111.9 44.3 L110.3 44.6 L108.6 44.9 L107.0 45.3 L105.3 45.6 L103.7 45.9 L102.1 46.1 L100.4 46.3 L98.8 46.5 L97.1 46.5 L95.5 46.6 L93.8 47.0 L92.2 47.7 L90.5 48.7 L88.9 49.9 L87.3 51.3 L85.6 52.8 L84.0 54.4 L82.3 56.0 L80.7 57.5 L79.0 58.9 L77.4 60.2 L75.8 61.3 L74.1 62.0 L72.5 62.5 L70.8 62.6 L69.2 62.7 L67.5 62.7 L65.9 62.8 L64.2 63.0 L62.6 63.1 L61.0 63.3 L59.3 63.4 L57.7 63.6 L56.0 63.8 L54.4 63.9 L52.7 64.0 L51.1 64.1 L49.5 64.2 L47.8 64.3 L46.2 64.3 L44.5 64.2 L42.9 64.1 L41.2 64.0 L39.6 63.9 L37.9 63.8 L36.3 63.6 L34.7 63.4 L33.0 63.3 L31.4 63.1 L29.7 63.0 L28.1 62.8 L26.4 62.7 L24.8 62.7 L23.2 62.6 L21.5 62.6 L19.9 62.5 L18.2 62.4 L16.6 62.3 L14.9 62.1 L13.3 61.9 L11.6 61.6 L10.0 61.4 Z" fill="none" stroke="#1a1a1a" stroke-opacity="0.22" stroke-width="0.8" stroke-linejoin="round"/>
</svg>
