<?xml version="1.0" encoding="UTF-8"?>
<svg xmlns="http://www.w3.org/2000/svg" viewBox="0 0 320 80" role="img">
  <title>Scottsdale seasonal climate ribbon</title>
  <path d="M10.0 33.5 L11.6 33.9 L11.6 46.1 L10.0 46.5 Z" fill="rgb(181, 190, 122)"/><path d="M11.6 33.9 L13.3 34.3 L13.3 45.7 L11.6 46.1 Z" fill="rgb(179, 189, 122)"/><path d="M13.3 34.3 L14.9 34.7 L14.9 45.3 L13.3 45.7 Z" fill="rgb(177, 189, 123)"/><path d="M14.9 34.7 L16.6 35.1 L16.6 44.9 L14.9 45.3 Z" fill="rgb(176, 189, 124)"/><path d="M16.6 35.1 L18.2 35.4 L18.2 44.6 L16.6 44.9 Z" fill="rgb(174, 189, 124)"/><path d="M18.2 35.4 L19.9 35.6 L19.9 44.4 L18.2 44.6 Z" fill="rgb(173, 189, 125)"/><path d="M19.9 35.6 L21.5 35.8 L21.5 44.2 L19.9 44.4 Z" fill="rgb(173, 188, 125)"/><path d="M21.5 35.8 L23.2 35.8 L23.2 44.2 L21.5 44.2 Z" fill="rgb(172, 188, 125)"/><path d="M23.2 35.8 L24.8 35.7 L24.8 44.3 L23.2 44.2 Z" fill="rgb(172, 188, 125)"/><path d="M24.8 35.7 L26.4 35.5 L26.4 44.5 L24.8 44.3 Z" fill="rgb(172, 188, 125)"/><path d="M26.4 35.5 L28.1 35.2 L28.1 44.8 L26.4 44.5 Z" fill="rgb(173, 189, 125)"/><path d="M28.1 35.2 L29.7 34.8 L29.7 45.2 L28.1 44.8 Z" fill="rgb(174, 189, 124)"/><path d="M29.7 34.8 L31.4 34.4 L31.4 45.6 L29.7 45.2 Z" fill="rgb(176, 189, 124)"/><path d="M31.4 34.4 L33.0 34.0 L33.0 46.0 L31.4 45.6 Z" fill="rgb(178, 189, 123)"/><path d="M33.0 34.0 L34.7 33.5 L34.7 46.5 L33.0 46.0 Z" fill="rgb(179, 190, 122)"/><path d="M34.7 33.5 L36.3 33.0 L36.3 47.0 L34.7 46.5 Z" fill="rgb(181, 190, 121)"/><path d="M36.3 33.0 L37.9 32.5 L37.9 47.5 L36.3 47.0 Z" fill="rgb(183, 190, 120)"/><path d="M37.9 32.5 L39.6 32.1 L39.6 47.9 L37.9 47.5 Z" fill="rgb(185, 190, 120)"/><path d="M39.6 32.1 L41.2 31.7 L41.2 48.3 L39.6 47.9 Z" fill="rgb(187, 191, 119)"/><path d="M41.2 31.7 L42.9 31.4 L42.9 48.6 L41.2 48.3 Z" fill="rgb(189, 191, 118)"/><path d="M42.9 31.4 L44.5 31.2 L44.5 48.8 L42.9 48.6 Z" fill="rgb(190, 191, 118)"/><path d="M44.5 31.2 L46.2 31.1 L46.2 48.9 L44.5 48.8 Z" fill="rgb(191, 191, 117)"/><path d="M46.2 31.1 L47.8 31.0 L47.8 49.0 L46.2 48.9 Z" fill="rgb(191, 191, 117)"/><path d="M47.8 31.0 L49.5 30.8 L49.5 49.2 L47.8 49.0 Z" fill="rgb(192, 191, 117)"/><path d="M49.5 30.8 L51.1 30.5 L51.1 49.5 L49.5 49.2 Z" fill="rgb(193, 191, 117)"/><path d="M51.1 30.5 L52.7 30.1 L52.7 49.9 L51.1 49.5 Z" fill="rgb(194, 192, 116)"/><path d="M52.7 30.1 L54.4 29.5 L54.4 50.5 L52.7 49.9 Z" fill="rgb(197, 192, 115)"/><path d="M54.4 29.5 L56.0 28.9 L56.0 51.1 L54.4 50.5 Z" fill="rgb(200, 193, 113)"/><path d="M56.0 28.9 L57.7 28.2 L57.7 51.8 L56.0 51.1 Z" fill="rgb(204, 193, 112)"/><path d="M57.7 28.2 L59.3 27.5 L59.3 52.5 L57.7 51.8 Z" fill="rgb(208, 194, 110)"/><path d="M59.3 27.5 L61.0 26.8 L61.0 53.2 L59.3 52.5 Z" fill="rgb(212, 194, 108)"/><path d="M61.0 26.8 L62.6 26.1 L62.6 53.9 L61.0 53.2 Z" fill="rgb(216, 195, 106)"/><path d="M62.6 26.1 L64.2 25.5 L64.2 54.5 L62.6 53.9 Z" fill="rgb(217, 193, 105)"/><path d="M64.2 25.5 L65.9 24.9 L65.9 55.1 L64.2 54.5 Z" fill="rgb(217, 192, 104)"/><path d="M65.9 24.9 L67.5 24.5 L67.5 55.5 L65.9 55.1 Z" fill="rgb(217, 190, 103)"/><path d="M67.5 24.5 L69.2 24.2 L69.2 55.8 L67.5 55.5 Z" fill="rgb(218, 189, 102)"/><path d="M69.2 24.2 L70.8 24.1 L70.8 55.9 L69.2 55.8 Z" fill="rgb(218, 188, 101)"/><path d="M70.8 24.1 L72.5 24.0 L72.5 56.0 L70.8 55.9 Z" fill="rgb(218, 187, 101)"/><path d="M72.5 24.0 L74.1 24.0 L74.1 56.0 L72.5 56.0 Z" fill="rgb(218, 187, 101)"/><path d="M74.1 24.0 L75.8 23.9 L75.8 56.1 L74.1 56.0 Z" fill="rgb(218, 187, 100)"/><path d="M75.8 23.9 L77.4 23.8 L77.4 56.2 L75.8 56.1 Z" fill="rgb(218, 185, 100)"/><path d="M77.4 23.8 L79.0 23.7 L79.0 56.3 L77.4 56.2 Z" fill="rgb(218, 184, 99)"/><path d="M79.0 23.7 L80.7 23.6 L80.7 56.4 L79.0 56.3 Z" fill="rgb(218, 182, 98)"/><path d="M80.7 23.6 L82.3 23.4 L82.3 56.6 L80.7 56.4 Z" fill="rgb(218, 180, 96)"/><path d="M82.3 23.4 L84.0 23.2 L84.0 56.8 L82.3 56.6 Z" fill="rgb(219, 178, 95)"/><path d="M84.0 23.2 L85.6 23.1 L85.6 56.9 L84.0 56.8 Z" fill="rgb(219, 176, 93)"/><path d="M85.6 23.1 L87.3 22.9 L87.3 57.1 L85.6 56.9 Z" fill="rgb(219, 174, 92)"/><path d="M87.3 22.9 L88.9 22.8 L88.9 57.2 L87.3 57.1 Z" fill="rgb(219, 172, 91)"/><path d="M88.9 22.8 L90.5 22.7 L90.5 57.3 L88.9 57.2 Z" fill="rgb(219, 170, 89)"/><path d="M90.5 22.7 L92.2 22.6 L92.2 57.4 L90.5 57.3 Z" fill="rgb(220, 168, 88)"/><path d="M92.2 22.6 L93.8 22.5 L93.8 57.5 L92.2 57.4 Z" fill="rgb(220, 167, 87)"/><path d="M93.8 22.5 L95.5 22.5 L95.5 57.5 L93.8 57.5 Z" fill="rgb(220, 166, 87)"/><path d="M95.5 22.5 L97.1 22.5 L97.1 57.5 L95.5 57.5 Z" fill="rgb(220, 165, 86)"/><path d="M97.1 22.5 L98.8 22.4 L98.8 57.6 L97.1 57.5 Z" fill="rgb(220, 165, 86)"/><path d="M98.8 22.4 L100.4 22.3 L100.4 57.7 L98.8 57.6 Z" fill="rgb(220, 165, 86)"/><path d="M100.4 22.3 L102.1 22.2 L102.1 57.8 L100.4 57.7 Z" fill="rgb(220, 164, 85)"/><path d="M102.1 22.2 L103.7 22.0 L103.7 58.0 L102.1 57.8 Z" fill="rgb(220, 162, 84)"/><path d="M103.7 22.0 L105.3 21.8 L105.3 58.2 L103.7 58.0 Z" fill="rgb(220, 161, 83)"/><path d="M105.3 21.8 L107.0 21.6 L107.0 58.4 L105.3 58.2 Z" fill="rgb(220, 159, 82)"/><path d="M107.0 21.6 L108.6 21.4 L108.6 58.6 L107.0 58.4 Z" fill="rgb(221, 157, 81)"/><path d="M108.6 21.4 L110.3 21.2 L110.3 58.8 L108.6 58.6 Z" fill="rgb(221, 155, 79)"/><path d="M110.3 21.2 L111.9 21.0 L111.9 59.0 L110.3 58.8 Z" fill="rgb(221, 152, 78)"/><path d="M111.9 21.0 L113.6 20.8 L113.6 59.2 L111.9 59.0 Z" fill="rgb(221, 150, 77)"/><path d="M113.6 20.8 L115.2 20.6 L115.2 59.4 L113.6 59.2 Z" fill="rgb(221, 148, 75)"/><path d="M115.2 20.6 L116.8 20.5 L116.8 59.5 L115.2 59.4 Z" fill="rgb(222, 147, 74)"/><path d="M116.8 20.5 L118.5 20.4 L118.5 59.6 L116.8 59.5 Z" fill="rgb(222, 145, 73)"/><path d="M118.5 20.4 L120.1 20.3 L120.1 59.7 L118.5 59.6 Z" fill="rgb(222, 144, 73)"/><path d="M120.1 20.3 L121.8 20.3 L121.8 59.7 L120.1 59.7 Z" fill="rgb(222, 144, 72)"/><path d="M121.8 20.3 L123.4 20.2 L123.4 59.8 L121.8 59.7 Z" fill="rgb(222, 143, 72)"/><path d="M123.4 20.2 L125.1 19.9 L125.1 60.1 L123.4 59.8 Z" fill="rgb(222, 143, 72)"/><path d="M125.1 19.9 L126.7 19.6 L126.7 60.4 L125.1 60.1 Z" fill="rgb(222, 143, 72)"/><path d="M126.7 19.6 L128.4 19.1 L128.4 60.9 L126.7 60.4 Z" fill="rgb(222, 142, 71)"/><path d="M128.4 19.1 L130.0 18.6 L130.0 61.4 L128.4 60.9 Z" fill="rgb(222, 141, 70)"/><path d="M130.0 18.6 L131.6 18.0 L131.6 62.0 L130.0 61.4 Z" fill="rgb(222, 139, 69)"/><path d="M131.6 18.0 L133.3 17.4 L133.3 62.6 L131.6 62.0 Z" fill="rgb(222, 138, 69)"/><path d="M133.3 17.4 L134.9 16.7 L134.9 63.3 L133.3 62.6 Z" fill="rgb(223, 137, 68)"/><path d="M134.9 16.7 L136.6 16.1 L136.6 63.9 L134.9 63.3 Z" fill="rgb(223, 135, 67)"/><path d="M136.6 16.1 L138.2 15.6 L138.2 64.4 L136.6 63.9 Z" fill="rgb(223, 134, 66)"/><path d="M138.2 15.6 L139.9 15.1 L139.9 64.9 L138.2 64.4 Z" fill="rgb(223, 133, 65)"/><path d="M139.9 15.1 L141.5 14.6 L141.5 65.4 L139.9 64.9 Z" fill="rgb(223, 131, 64)"/><path d="M141.5 14.6 L143.2 14.3 L143.2 65.7 L141.5 65.4 Z" fill="rgb(223, 130, 63)"/><path d="M143.2 14.3 L144.8 14.1 L144.8 65.9 L143.2 65.7 Z" fill="rgb(223, 130, 63)"/><path d="M144.8 14.1 L146.4 14.0 L146.4 66.0 L144.8 65.9 Z" fill="rgb(223, 129, 63)"/><path d="M146.4 14.0 L148.1 14.0 L148.1 66.0 L146.4 66.0 Z" fill="rgb(223, 129, 62)"/><path d="M148.1 14.0 L149.7 13.9 L149.7 66.1 L148.1 66.0 Z" fill="rgb(223, 129, 62)"/><path d="M149.7 13.9 L151.4 13.9 L151.4 66.1 L149.7 66.1 Z" fill="rgb(223, 128, 62)"/><path d="M151.4 13.9 L153.0 13.8 L153.0 66.2 L151.4 66.1 Z" fill="rgb(223, 128, 62)"/><path d="M153.0 13.8 L154.7 13.7 L154.7 66.3 L153.0 66.2 Z" fill="rgb(224, 127, 61)"/><path d="M154.7 13.7 L156.3 13.6 L156.3 66.4 L154.7 66.3 Z" fill="rgb(224, 126, 61)"/><path d="M156.3 13.6 L157.9 13.5 L157.9 66.5 L156.3 66.4 Z" fill="rgb(224, 125, 60)"/><path d="M157.9 13.5 L159.6 13.5 L159.6 66.5 L157.9 66.5 Z" fill="rgb(224, 124, 59)"/><path d="M159.6 13.5 L161.2 13.4 L161.2 66.6 L159.6 66.5 Z" fill="rgb(224, 123, 59)"/><path d="M161.2 13.4 L162.9 13.3 L162.9 66.7 L161.2 66.6 Z" fill="rgb(224, 122, 58)"/><path d="M162.9 13.3 L164.5 13.2 L164.5 66.8 L162.9 66.7 Z" fill="rgb(224, 121, 58)"/><path d="M164.5 13.2 L166.2 13.1 L166.2 66.9 L164.5 66.8 Z" fill="rgb(224, 121, 58)"/><path d="M166.2 13.1 L167.8 13.1 L167.8 66.9 L166.2 66.9 Z" fill="rgb(224, 120, 58)"/><path d="M167.8 13.1 L169.5 13.0 L169.5 67.0 L167.8 66.9 Z" fill="rgb(224, 120, 58)"/><path d="M169.5 13.0 L171.1 13.0 L171.1 67.0 L169.5 67.0 Z" fill="rgb(224, 120, 58)"/><path d="M171.1 13.0 L172.7 13.0 L172.7 67.0 L171.1 67.0 Z" fill="rgb(224, 120, 58)"/><path d="M172.7 13.0 L174.4 13.1 L174.4 66.9 L172.7 67.0 Z" fill="rgb(224, 120, 58)"/><path d="M174.4 13.1 L176.0 13.2 L176.0 66.8 L174.4 66.9 Z" fill="rgb(224, 120, 58)"/><path d="M176.0 13.2 L177.7 13.3 L177.7 66.7 L176.0 66.8 Z" fill="rgb(224, 120, 58)"/><path d="M177.7 13.3 L179.3 13.4 L179.3 66.6 L177.7 66.7 Z" fill="rgb(224, 120, 58)"/><path d="M179.3 13.4 L181.0 13.6 L181.0 66.4 L179.3 66.6 Z" fill="rgb(224, 120, 58)"/><path d="M181.0 13.6 L182.6 13.7 L182.6 66.3 L181.0 66.4 Z" fill="rgb(224, 121, 58)"/><path d="M182.6 13.7 L184.2 13.9 L184.2 66.1 L182.6 66.3 Z" fill="rgb(224, 121, 58)"/><path d="M184.2 13.9 L185.9 14.1 L185.9 65.9 L184.2 66.1 Z" fill="rgb(224, 121, 58)"/><path d="M185.9 14.1 L187.5 14.2 L187.5 65.8 L185.9 65.9 Z" fill="rgb(224, 121, 58)"/><path d="M187.5 14.2 L189.2 14.4 L189.2 65.6 L187.5 65.8 Z" fill="rgb(224, 122, 58)"/><path d="M189.2 14.4 L190.8 14.5 L190.8 65.5 L189.2 65.6 Z" fill="rgb(224, 122, 58)"/><path d="M190.8 14.5 L192.5 14.7 L192.5 65.3 L190.8 65.5 Z" fill="rgb(224, 122, 58)"/><path d="M192.5 14.7 L194.1 14.7 L194.1 65.3 L192.5 65.3 Z" fill="rgb(224, 122, 58)"/><path d="M194.1 14.7 L195.8 14.8 L195.8 65.2 L194.1 65.3 Z" fill="rgb(224, 123, 58)"/><path d="M195.8 14.8 L197.4 14.8 L197.4 65.2 L195.8 65.2 Z" fill="rgb(224, 123, 58)"/><path d="M197.4 14.8 L199.0 14.9 L199.0 65.1 L197.4 65.2 Z" fill="rgb(224, 123, 59)"/><path d="M199.0 14.9 L200.7 15.1 L200.7 64.9 L199.0 65.1 Z" fill="rgb(224, 123, 59)"/><path d="M200.7 15.1 L202.3 15.3 L202.3 64.7 L200.7 64.9 Z" fill="rgb(224, 124, 59)"/><path d="M202.3 15.3 L204.0 15.6 L204.0 64.4 L202.3 64.7 Z" fill="rgb(224, 125, 60)"/><path d="M204.0 15.6 L205.6 16.0 L205.6 64.0 L204.0 64.4 Z" fill="rgb(224, 127, 61)"/><path d="M205.6 16.0 L207.3 16.4 L207.3 63.6 L205.6 64.0 Z" fill="rgb(223, 129, 62)"/><path d="M207.3 16.4 L208.9 16.9 L208.9 63.1 L207.3 63.6 Z" fill="rgb(223, 131, 64)"/><path d="M208.9 16.9 L210.5 17.3 L210.5 62.7 L208.9 63.1 Z" fill="rgb(223, 133, 65)"/><path d="M210.5 17.3 L212.2 17.7 L212.2 62.3 L210.5 62.7 Z" fill="rgb(223, 135, 66)"/><path d="M212.2 17.7 L213.8 18.1 L213.8 61.9 L212.2 62.3 Z" fill="rgb(223, 137, 68)"/><path d="M213.8 18.1 L215.5 18.5 L215.5 61.5 L213.8 61.9 Z" fill="rgb(222, 139, 69)"/><path d="M215.5 18.5 L217.1 18.8 L217.1 61.2 L215.5 61.5 Z" fill="rgb(222, 140, 70)"/><path d="M217.1 18.8 L218.8 19.0 L218.8 61.0 L217.1 61.2 Z" fill="rgb(222, 142, 71)"/><path d="M218.8 19.0 L220.4 19.2 L220.4 60.8 L218.8 61.0 Z" fill="rgb(222, 143, 72)"/><path d="M220.4 19.2 L222.1 19.2 L222.1 60.8 L220.4 60.8 Z" fill="rgb(222, 144, 72)"/><path d="M222.1 19.2 L223.7 19.3 L223.7 60.7 L222.1 60.8 Z" fill="rgb(222, 144, 72)"/><path d="M223.7 19.3 L225.3 19.6 L225.3 60.4 L223.7 60.7 Z" fill="rgb(222, 144, 73)"/><path d="M225.3 19.6 L227.0 20.0 L227.0 60.0 L225.3 60.4 Z" fill="rgb(222, 145, 73)"/><path d="M227.0 20.0 L228.6 20.5 L228.6 59.5 L227.0 60.0 Z" fill="rgb(222, 146, 74)"/><path d="M228.6 20.5 L230.3 21.1 L230.3 58.9 L228.6 59.5 Z" fill="rgb(222, 148, 75)"/><path d="M230.3 21.1 L231.9 21.8 L231.9 58.2 L230.3 58.9 Z" fill="rgb(221, 149, 76)"/><path d="M231.9 21.8 L233.6 22.5 L233.6 57.5 L231.9 58.2 Z" fill="rgb(221, 151, 77)"/><path d="M233.6 22.5 L235.2 23.2 L235.2 56.8 L233.6 57.5 Z" fill="rgb(221, 154, 79)"/><path d="M235.2 23.2 L236.8 23.9 L236.8 56.1 L235.2 56.8 Z" fill="rgb(221, 156, 80)"/><path d="M236.8 23.9 L238.5 24.6 L238.5 55.4 L236.8 56.1 Z" fill="rgb(221, 158, 82)"/><path d="M238.5 24.6 L240.1 25.2 L240.1 54.8 L238.5 55.4 Z" fill="rgb(220, 160, 83)"/><path d="M240.1 25.2 L241.8 25.8 L241.8 54.2 L240.1 54.8 Z" fill="rgb(220, 162, 84)"/><path d="M241.8 25.8 L243.4 26.2 L243.4 53.8 L241.8 54.2 Z" fill="rgb(220, 164, 85)"/><path d="M243.4 26.2 L245.1 26.5 L245.1 53.5 L243.4 53.8 Z" fill="rgb(220, 165, 86)"/><path d="M245.1 26.5 L246.7 26.6 L246.7 53.4 L245.1 53.5 Z" fill="rgb(220, 166, 87)"/><path d="M246.7 26.6 L248.4 26.6 L248.4 53.4 L246.7 53.4 Z" fill="rgb(220, 166, 87)"/><path d="M248.4 26.6 L250.0 26.7 L250.0 53.3 L248.4 53.4 Z" fill="rgb(220, 166, 87)"/><path d="M250.0 26.7 L251.6 26.7 L251.6 53.3 L250.0 53.3 Z" fill="rgb(220, 167, 88)"/><path d="M251.6 26.7 L253.3 26.9 L253.3 53.1 L251.6 53.3 Z" fill="rgb(220, 168, 88)"/><path d="M253.3 26.9 L254.9 27.0 L254.9 53.0 L253.3 53.1 Z" fill="rgb(219, 170, 90)"/><path d="M254.9 27.0 L256.6 27.1 L256.6 52.9 L254.9 53.0 Z" fill="rgb(219, 172, 91)"/><path d="M256.6 27.1 L258.2 27.3 L258.2 52.7 L256.6 52.9 Z" fill="rgb(219, 175, 93)"/><path d="M258.2 27.3 L259.9 27.4 L259.9 52.6 L258.2 52.7 Z" fill="rgb(219, 177, 94)"/><path d="M259.9 27.4 L261.5 27.6 L261.5 52.4 L259.9 52.6 Z" fill="rgb(218, 180, 96)"/><path d="M261.5 27.6 L263.2 27.7 L263.2 52.3 L261.5 52.4 Z" fill="rgb(218, 182, 98)"/><path d="M263.2 27.7 L264.8 27.9 L264.8 52.1 L263.2 52.3 Z" fill="rgb(218, 185, 99)"/><path d="M264.8 27.9 L266.4 28.0 L266.4 52.0 L264.8 52.1 Z" fill="rgb(218, 187, 101)"/><path d="M266.4 28.0 L268.1 28.1 L268.1 51.9 L266.4 52.0 Z" fill="rgb(218, 189, 102)"/><path d="M268.1 28.1 L269.7 28.1 L269.7 51.9 L268.1 51.9 Z" fill="rgb(217, 191, 103)"/><path d="M269.7 28.1 L271.4 28.2 L271.4 51.8 L269.7 51.9 Z" fill="rgb(217, 192, 104)"/><path d="M271.4 28.2 L273.0 28.2 L273.0 51.8 L271.4 51.8 Z" fill="rgb(217, 192, 104)"/><path d="M273.0 28.2 L274.7 28.3 L274.7 51.7 L273.0 51.8 Z" fill="rgb(217, 193, 104)"/><path d="M274.7 28.3 L276.3 28.4 L276.3 51.6 L274.7 51.7 Z" fill="rgb(217, 193, 105)"/><path d="M276.3 28.4 L277.9 28.6 L277.9 51.4 L276.3 51.6 Z" fill="rgb(217, 194, 105)"/><path d="M277.9 28.6 L279.6 28.8 L279.6 51.2 L277.9 51.4 Z" fill="rgb(217, 195, 106)"/><path d="M279.6 28.8 L281.2 29.1 L281.2 50.9 L279.6 51.2 Z" fill="rgb(215, 195, 107)"/><path d="M281.2 29.1 L282.9 29.3 L282.9 50.7 L281.2 50.9 Z" fill="rgb(212, 194, 108)"/><path d="M282.9 29.3 L284.5 29.6 L284.5 50.4 L282.9 50.7 Z" fill="rgb(209, 194, 109)"/><path d="M284.5 29.6 L286.2 29.9 L286.2 50.1 L284.5 50.4 Z" fill="rgb(206, 193, 111)"/><path d="M286.2 29.9 L287.8 30.2 L287.8 49.8 L286.2 50.1 Z" fill="rgb(203, 193, 112)"/><path d="M287.8 30.2 L289.5 30.4 L289.5 49.6 L287.8 49.8 Z" fill="rgb(200, 192, 113)"/><path d="M289.5 30.4 L291.1 30.7 L291.1 49.3 L289.5 49.6 Z" fill="rgb(197, 192, 115)"/><path d="M291.1 30.7 L292.7 30.9 L292.7 49.1 L291.1 49.3 Z" fill="rgb(194, 192, 116)"/><path d="M292.7 30.9 L294.4 31.0 L294.4 49.0 L292.7 49.1 Z" fill="rgb(192, 191, 117)"/><path d="M294.4 31.0 L296.0 31.1 L296.0 48.9 L294.4 49.0 Z" fill="rgb(191, 191, 117)"/><path d="M296.0 31.1 L297.7 31.1 L297.7 48.9 L296.0 48.9 Z" fill="rgb(190, 191, 118)"/><path d="M297.7 31.1 L299.3 31.2 L299.3 48.8 L297.7 48.9 Z" fill="rgb(189, 191, 118)"/><path d="M299.3 31.2 L301.0 31.4 L301.0 48.6 L299.3 48.8 Z" fill="rgb(189, 191, 118)"/><path d="M301.0 31.4 L302.6 31.7 L302.6 48.3 L301.0 48.6 Z" fill="rgb(188, 191, 118)"/><path d="M302.6 31.7 L304.2 32.0 L304.2 48.0 L302.6 48.3 Z" fill="rgb(187, 191, 119)"/><path d="M304.2 32.0 L305.9 32.4 L305.9 47.6 L304.2 48.0 Z" fill="rgb(186, 191, 119)"/><path d="M305.9 32.4 L307.5 32.8 L307.5 47.2 L305.9 47.6 Z" fill="rgb(185, 190, 120)"/><path d="M307.5 32.8 L309.2 33.2 L309.2 46.8 L307.5 47.2 Z" fill="rgb(183, 190, 121)"/><path d="M309.2 33.2 L310.0 33.2 L310.0 46.8 L309.2 46.8 Z" fill="rgb(182, 190, 121)"/>
  <path d="M10.0 33.5 L11.6 33.9 L13.3 34.3 L14.9 34.7 L16.6 35.1 L18.2 35.4 L19.9 35.6 L21.5 35.8 L23.2 35.8 L24.8 35.7 L26.4 35.5 L28.1 35.2 L29.7 34.8 L31.4 34.4 L33.0 34.0 L34.7 33.5 L36.3 33.0 L37.9 32.5 L39.6 32.1 L41.2 31.7 L42.9 31.4 L44.5 31.2 L46.2 31.1 L47.8 31.0 L49.5 30.8 L51.1 30.5 L52.7 30.1 L54.4 29.5 L56.0 28.9 L57.7 28.2 L59.3 27.5 L61.0 26.8 L62.6 26.1 L64.2 25.5 L65.9 24.9 L67.5 24.5 L69.2 24.2 L70.8 24.1 L72.5 24.0 L74.1 24.0 L75.8 23.9 L77.4 23.8 L79.0 23.7 L80.7 23.6 L82.3 23.4 L84.0 23.2 L85.6 23.1 L87.3 22.9 L88.9 22.8 L90.5 22.7 L92.2 22.6 L93.8 22.5 L95.5 22.5 L97.1 22.5 L98.8 22.4 L100.4 22.3 L102.1 22.2 L103.7 22.0 L105.3 21.8 L107.0 21.6 L108.6 21.4 L110.3 21.2 L111.9 21.0 L113.6 20.8 L115.2 20.6 L116.8 20.5 L118.5 20.4 L120.1 20.3 L121.8 20.3 L123.4 20.2 L125.1 19.9 L126.7 19.6 L128.4 19.1 L130.0 18.6 L131.6 18.0 L133.3 17.4 L134.9 16.7 L136.6 16.1 L138.2 15.6 L139.9 15.1 L141.5 14.6 L143.2 14.3 L144.8 14.1 L146.4 14.0 L148.1 14.0 L149.7 13.9 L151.4 13.9 L153.0 13.8 L154.7 13.7 L156.3 13.6 L157.9 13.5 L159.6 13.5 L161.2 13.4 L162.9 13.3 L164.5 13.2 L166.2 13.1 L167.8 13.1 L169.5 13.0 L171.1 13.0 L172.7 13.0 L174.4 13.1 L176.0 13.2 L177.7 13.3 L179.3 13.4 L181.0 13.6 L182.6 13.7 L184.2 13.9 L185.9 14.1 L187.5 14.2 L189.2 14.4 L190.8 14.5 L192.5 14.7 L194.1 14.7 L195.8 14.8 L197.4 14.8 L199.0 14.9 L200.7 15.1 L202.3 15.3 L204.0 15.6 L205.6 16.0 L207.3 16.4 L208.9 16.9 L210.5 17.3 L212.2 17.7 L213.8 18.1 L215.5 18.5 L217.1 18.8 L218.8 19.0 L220.4 19.2 L222.1 19.2 L223.7 19.3 L225.3 19.6 L227.0 20.0 L228.6 20.5 L230.3 21.1 L231.9 21.8 L233.6 22.5 L235.2 23.2 L236.8 23.9 L238.5 24.6 L240.1 25.2 L241.8 25.8 L243.4 26.2 L245.1 26.5 L246.7 26.6 L248.4 26.6 L250.0 26.7 L251.6 26.7 L253.3 26.9 L254.9 27.0 L256.6 27.1 L258.2 27.3 L259.9 27.4 L261.5 27.6 L263.2 27.7 L264.8 27.9 L266.4 28.0 L268.1 28.1 L269.7 28.1 L271.4 28.2 L273.0 28.2 L274.7 28.3 L276.3 28.4 L277.9 28.6 L279.6 28.8 L281.2 29.1 L282.9 29.3 L284.5 29.6 L286.2 29.9 L287.8 30.2 L289.5 30.4 L291.1 30.7 L292.7 30.9 L294.4 31.0 L296.0 31.1 L297.7 31.1 L299.3 31.2 L301.0 31.4 L302.6 31.7 L304.2 32.0 L305.9 32.4 L307.5 32.8 L309.2 33.2 L309.2 46.8 L307.5 47.2 L305.9 47.6 L304.2 48.0 L302.6 48.3 L301.0 48.6 L299.3 48.8 L297.7 48.9 L296.0 48.9 L294.4 49.0 L292.7 49.1 L291.1 49.3 L289.5 49.6 L287.8 49.8 L286.2 50.1 L284.5 50.4 L282.9 50.7 L281.2 50.9 L279.6 51.2 L277.9 51.4 L276.3 51.6 L274.7 51.7 L273.0 51.8 L271.4 51.8 L269.7 51.9 L268.1 51.9 L266.4 52.0 L264.8 52.1 L263.2 52.3 L261.5 52.4 L259.9 52.6 L258.2 52.7 L256.6 52.9 L254.9 53.0 L253.3 53.1 L251.6 53.3 L250.0 53.3 L248.4 53.4 L246.7 53.4 L245.1 53.5 L243.4 53.8 L241.8 54.2 L240.1 54.8 L238.5 55.4 L236.8 56.1 L235.2 56.8 L233.6 57.5 L231.9 58.2 L230.3 58.9 L228.6 59.5 L227.0 60.0 L225.3 60.4 L223.7 60.7 L222.1 60.8 L220.4 60.8 L218.8 61.0 L217.1 61.2 L215.5 61.5 L213.8 61.9 L212.2 62.3 L210.5 62.7 L208.9 63.1 L207.3 63.6 L205.6 64.0 L204.0 64.4 L202.3 64.7 L200.7 64.9 L199.0 65.1 L197.4 65.2 L195.8 65.2 L194.1 65.3 L192.5 65.3 L190.8 65.5 L189.2 65.6 L187.5 65.8 L185.9 65.9 L184.2 66.1 L182.6 66.3 L181.0 66.4 L179.3 66.6 L177.7 66.7 L176.0 66.8 L174.4 66.9 L172.7 67.0 L171.1 67.0 L169.5 67.0 L167.8 66.9 L166.2 66.9 L164.5 66.8 L162.9 66.7 L161.2 66.6 L159.6 66.5 L157.9 66.5 L156.3 66.4 L154.7 66.3 L153.0 66.2 L151.4 66.1 L149.7 66.1 L148.1 66.0 L146.4 66.0 L144.8 65.9 L143.2 65.7 L141.5 65.4 L139.9 64.9 L138.2 64.4 L136.6 63.9 L134.9 63.3 L133.3 62.6 L131.6 62.0 L130.0 61.4 L128.4 60.9 L126.7 60.4 L125.1 60.1 L123.4 59.8 L121.8 59.7 L120.1 59.7 L118.5 59.6 L116.8 59.5 L115.2 59.4 L113.6 59.2 L111.9 59.0 L110.3 58.8 L108.6 58.6 L107.0 58.4 L105.3 58.2 L103.7 58.0 L102.1 57.8 L100.4 57.7 L98.8 57.6 L97.1 57.5 L95.5 57.5 L93.8 57.5 L92.2 57.4 L90.5 57.3 L88.9 57.2 L87.3 57.1 L85.6 56.9 L84.0 56.8 L82.3 56.6 L80.7 56.4 L79.0 56.3 L77.4 56.2 L75.8 56.1 L74.1 56.0 L72.5 56.0 L70.8 55.9 L69.2 55.8 L67.5 55.5 L65.9 55.1 L64.2 54.5 L62.6 53.9 L61.0 53.2 L59.3 52.5 L57.7 51.8 L56.0 51.1 L54.4 50.5 L52.7 49.9 L51.1 49.5 L49.5 49.2 L47.8 49.0 L46.2 48.9 L44.5 48.8 L42.9 48.6 L41.2 48.3 L39.6 47.9 L37.9 47.5 L36.3 47.0 L34.7 46.5 L33.0 46.0 L31.4 45.6 L29.7 45.2 L28.1 44.8 L26.4 44.5 L24.8 44.3 L23.2 44.2 L21.5 44.2 L19.9 44.4 L18.2 44.6 L16.6 44.9 L14.9 45.3 L13.3 45.7 L11.6 46.1 L10.0 46.5 Z" fill="none" stroke="#1a1a1a" stroke-opacity="0.22" stroke-width="0.8" stroke-linejoin="round"/>
</svg>
