<?xml version="1.0" encoding="UTF-8"?>
<svg xmlns="http://www.w3.org/2000/svg" viewBox="0 0 320 80" role="img">
  <title>Washington seasonal climate ribbon</title>
  <path d="M10.0 15.1 L11.6 15.0 L11.6 65.0 L10.0 64.9 Z" fill="rgb(120, 181, 148)"/><path d="M11.6 15.0 L13.3 15.0 L13.3 65.0 L11.6 65.0 Z" fill="rgb(118, 181, 148)"/><path d="M13.3 15.0 L14.9 14.9 L14.9 65.1 L13.3 65.0 Z" fill="rgb(117, 180, 149)"/><path d="M14.9 14.9 L16.6 14.9 L16.6 65.1 L14.9 65.1 Z" fill="rgb(115, 180, 150)"/><path d="M16.6 14.9 L18.2 14.8 L18.2 65.2 L16.6 65.1 Z" fill="rgb(114, 180, 150)"/><path d="M18.2 14.8 L19.9 14.8 L19.9 65.2 L18.2 65.2 Z" fill="rgb(113, 180, 151)"/><path d="M19.9 14.8 L21.5 14.8 L21.5 65.2 L19.9 65.2 Z" fill="rgb(112, 180, 151)"/><path d="M21.5 14.8 L23.2 14.8 L23.2 65.2 L21.5 65.2 Z" fill="rgb(112, 180, 151)"/><path d="M23.2 14.8 L24.8 14.8 L24.8 65.2 L23.2 65.2 Z" fill="rgb(111, 180, 151)"/><path d="M24.8 14.8 L26.4 14.9 L26.4 65.1 L24.8 65.2 Z" fill="rgb(112, 180, 151)"/><path d="M26.4 14.9 L28.1 15.1 L28.1 64.9 L26.4 65.1 Z" fill="rgb(113, 180, 151)"/><path d="M28.1 15.1 L29.7 15.3 L29.7 64.7 L28.1 64.9 Z" fill="rgb(114, 180, 151)"/><path d="M29.7 15.3 L31.4 15.5 L31.4 64.5 L29.7 64.7 Z" fill="rgb(115, 180, 150)"/><path d="M31.4 15.5 L33.0 15.7 L33.0 64.3 L31.4 64.5 Z" fill="rgb(116, 180, 149)"/><path d="M33.0 15.7 L34.7 16.0 L34.7 64.0 L33.0 64.3 Z" fill="rgb(118, 181, 149)"/><path d="M34.7 16.0 L36.3 16.2 L36.3 63.8 L34.7 64.0 Z" fill="rgb(120, 181, 148)"/><path d="M36.3 16.2 L37.9 16.5 L37.9 63.5 L36.3 63.8 Z" fill="rgb(121, 181, 147)"/><path d="M37.9 16.5 L39.6 16.7 L39.6 63.3 L37.9 63.5 Z" fill="rgb(123, 181, 146)"/><path d="M39.6 16.7 L41.2 16.9 L41.2 63.1 L39.6 63.3 Z" fill="rgb(125, 181, 146)"/><path d="M41.2 16.9 L42.9 17.0 L42.9 63.0 L41.2 63.1 Z" fill="rgb(126, 182, 145)"/><path d="M42.9 17.0 L44.5 17.2 L44.5 62.8 L42.9 63.0 Z" fill="rgb(127, 182, 145)"/><path d="M44.5 17.2 L46.2 17.2 L46.2 62.8 L44.5 62.8 Z" fill="rgb(128, 182, 144)"/><path d="M46.2 17.2 L47.8 17.2 L47.8 62.8 L46.2 62.8 Z" fill="rgb(128, 182, 144)"/><path d="M47.8 17.2 L49.5 17.3 L49.5 62.7 L47.8 62.8 Z" fill="rgb(128, 182, 144)"/><path d="M49.5 17.3 L51.1 17.3 L51.1 62.7 L49.5 62.7 Z" fill="rgb(130, 182, 144)"/><path d="M51.1 17.3 L52.7 17.4 L52.7 62.6 L51.1 62.7 Z" fill="rgb(132, 183, 142)"/><path d="M52.7 17.4 L54.4 17.4 L54.4 62.6 L52.7 62.6 Z" fill="rgb(136, 183, 141)"/><path d="M54.4 17.4 L56.0 17.5 L56.0 62.5 L54.4 62.6 Z" fill="rgb(140, 184, 139)"/><path d="M56.0 17.5 L57.7 17.6 L57.7 62.4 L56.0 62.5 Z" fill="rgb(145, 184, 137)"/><path d="M57.7 17.6 L59.3 17.7 L59.3 62.3 L57.7 62.4 Z" fill="rgb(150, 185, 135)"/><path d="M59.3 17.7 L61.0 17.8 L61.0 62.2 L59.3 62.3 Z" fill="rgb(155, 186, 133)"/><path d="M61.0 17.8 L62.6 17.9 L62.6 62.1 L61.0 62.2 Z" fill="rgb(160, 187, 130)"/><path d="M62.6 17.9 L64.2 18.0 L64.2 62.0 L62.6 62.1 Z" fill="rgb(165, 187, 128)"/><path d="M64.2 18.0 L65.9 18.1 L65.9 61.9 L64.2 62.0 Z" fill="rgb(170, 188, 126)"/><path d="M65.9 18.1 L67.5 18.1 L67.5 61.9 L65.9 61.9 Z" fill="rgb(174, 189, 125)"/><path d="M67.5 18.1 L69.2 18.2 L69.2 61.8 L67.5 61.9 Z" fill="rgb(177, 189, 123)"/><path d="M69.2 18.2 L70.8 18.2 L70.8 61.8 L69.2 61.8 Z" fill="rgb(179, 189, 122)"/><path d="M70.8 18.2 L72.5 18.2 L72.5 61.8 L70.8 61.8 Z" fill="rgb(180, 190, 122)"/><path d="M72.5 18.2 L74.1 18.2 L74.1 61.8 L72.5 61.8 Z" fill="rgb(181, 190, 122)"/><path d="M74.1 18.2 L75.8 18.3 L75.8 61.7 L74.1 61.8 Z" fill="rgb(182, 190, 121)"/><path d="M75.8 18.3 L77.4 18.3 L77.4 61.7 L75.8 61.7 Z" fill="rgb(185, 190, 120)"/><path d="M77.4 18.3 L79.0 18.4 L79.0 61.6 L77.4 61.7 Z" fill="rgb(188, 191, 119)"/><path d="M79.0 18.4 L80.7 18.5 L80.7 61.5 L79.0 61.6 Z" fill="rgb(192, 191, 117)"/><path d="M80.7 18.5 L82.3 18.6 L82.3 61.4 L80.7 61.5 Z" fill="rgb(196, 192, 115)"/><path d="M82.3 18.6 L84.0 18.6 L84.0 61.4 L82.3 61.4 Z" fill="rgb(201, 193, 113)"/><path d="M84.0 18.6 L85.6 18.7 L85.6 61.3 L84.0 61.4 Z" fill="rgb(206, 193, 111)"/><path d="M85.6 18.7 L87.3 18.8 L87.3 61.2 L85.6 61.3 Z" fill="rgb(211, 194, 109)"/><path d="M87.3 18.8 L88.9 18.9 L88.9 61.1 L87.3 61.2 Z" fill="rgb(216, 195, 107)"/><path d="M88.9 18.9 L90.5 19.0 L90.5 61.0 L88.9 61.1 Z" fill="rgb(217, 194, 105)"/><path d="M90.5 19.0 L92.2 19.0 L92.2 61.0 L90.5 61.0 Z" fill="rgb(217, 192, 104)"/><path d="M92.2 19.0 L93.8 19.1 L93.8 60.9 L92.2 61.0 Z" fill="rgb(217, 190, 103)"/><path d="M93.8 19.1 L95.5 19.1 L95.5 60.9 L93.8 60.9 Z" fill="rgb(218, 189, 102)"/><path d="M95.5 19.1 L97.1 19.1 L97.1 60.9 L95.5 60.9 Z" fill="rgb(218, 188, 102)"/><path d="M97.1 19.1 L98.8 19.1 L98.8 60.9 L97.1 60.9 Z" fill="rgb(218, 188, 101)"/><path d="M98.8 19.1 L100.4 19.1 L100.4 60.9 L98.8 60.9 Z" fill="rgb(218, 187, 101)"/><path d="M100.4 19.1 L102.1 19.1 L102.1 60.9 L100.4 60.9 Z" fill="rgb(218, 186, 100)"/><path d="M102.1 19.1 L103.7 19.1 L103.7 60.9 L102.1 60.9 Z" fill="rgb(218, 184, 99)"/><path d="M103.7 19.1 L105.3 19.1 L105.3 60.9 L103.7 60.9 Z" fill="rgb(218, 182, 97)"/><path d="M105.3 19.1 L107.0 19.2 L107.0 60.8 L105.3 60.9 Z" fill="rgb(218, 179, 96)"/><path d="M107.0 19.2 L108.6 19.2 L108.6 60.8 L107.0 60.8 Z" fill="rgb(219, 177, 94)"/><path d="M108.6 19.2 L110.3 19.2 L110.3 60.8 L108.6 60.8 Z" fill="rgb(219, 174, 92)"/><path d="M110.3 19.2 L111.9 19.2 L111.9 60.8 L110.3 60.8 Z" fill="rgb(219, 171, 90)"/><path d="M111.9 19.2 L113.6 19.3 L113.6 60.7 L111.9 60.8 Z" fill="rgb(220, 168, 88)"/><path d="M113.6 19.3 L115.2 19.3 L115.2 60.7 L113.6 60.7 Z" fill="rgb(220, 165, 86)"/><path d="M115.2 19.3 L116.8 19.3 L116.8 60.7 L115.2 60.7 Z" fill="rgb(220, 163, 85)"/><path d="M116.8 19.3 L118.5 19.3 L118.5 60.7 L116.8 60.7 Z" fill="rgb(220, 161, 84)"/><path d="M118.5 19.3 L120.1 19.3 L120.1 60.7 L118.5 60.7 Z" fill="rgb(220, 160, 83)"/><path d="M120.1 19.3 L121.8 19.3 L121.8 60.7 L120.1 60.7 Z" fill="rgb(220, 159, 82)"/><path d="M121.8 19.3 L123.4 19.2 L123.4 60.8 L121.8 60.7 Z" fill="rgb(221, 158, 82)"/><path d="M123.4 19.2 L125.1 19.0 L125.1 61.0 L123.4 60.8 Z" fill="rgb(221, 158, 82)"/><path d="M125.1 19.0 L126.7 18.6 L126.7 61.4 L125.1 61.0 Z" fill="rgb(221, 157, 81)"/><path d="M126.7 18.6 L128.4 18.2 L128.4 61.8 L126.7 61.4 Z" fill="rgb(221, 155, 80)"/><path d="M128.4 18.2 L130.0 17.7 L130.0 62.3 L128.4 61.8 Z" fill="rgb(221, 153, 78)"/><path d="M130.0 17.7 L131.6 17.1 L131.6 62.9 L130.0 62.3 Z" fill="rgb(221, 151, 77)"/><path d="M131.6 17.1 L133.3 16.5 L133.3 63.5 L131.6 62.9 Z" fill="rgb(222, 148, 75)"/><path d="M133.3 16.5 L134.9 15.9 L134.9 64.1 L133.3 63.5 Z" fill="rgb(222, 145, 73)"/><path d="M134.9 15.9 L136.6 15.4 L136.6 64.6 L134.9 64.1 Z" fill="rgb(222, 142, 71)"/><path d="M136.6 15.4 L138.2 14.8 L138.2 65.2 L136.6 64.6 Z" fill="rgb(222, 140, 70)"/><path d="M138.2 14.8 L139.9 14.3 L139.9 65.7 L138.2 65.2 Z" fill="rgb(223, 137, 68)"/><path d="M139.9 14.3 L141.5 13.9 L141.5 66.1 L139.9 65.7 Z" fill="rgb(223, 135, 66)"/><path d="M141.5 13.9 L143.2 13.6 L143.2 66.4 L141.5 66.1 Z" fill="rgb(223, 133, 65)"/><path d="M143.2 13.6 L144.8 13.4 L144.8 66.6 L143.2 66.4 Z" fill="rgb(223, 131, 64)"/><path d="M144.8 13.4 L146.4 13.3 L146.4 66.7 L144.8 66.6 Z" fill="rgb(223, 130, 63)"/><path d="M146.4 13.3 L148.1 13.3 L148.1 66.7 L146.4 66.7 Z" fill="rgb(223, 130, 63)"/><path d="M148.1 13.3 L149.7 13.4 L149.7 66.6 L148.1 66.7 Z" fill="rgb(223, 130, 63)"/><path d="M149.7 13.4 L151.4 13.6 L151.4 66.4 L149.7 66.6 Z" fill="rgb(223, 129, 63)"/><path d="M151.4 13.6 L153.0 13.8 L153.0 66.2 L151.4 66.4 Z" fill="rgb(223, 129, 62)"/><path d="M153.0 13.8 L154.7 14.0 L154.7 66.0 L153.0 66.2 Z" fill="rgb(223, 128, 62)"/><path d="M154.7 14.0 L156.3 14.2 L156.3 65.8 L154.7 66.0 Z" fill="rgb(224, 127, 61)"/><path d="M156.3 14.2 L157.9 14.5 L157.9 65.5 L156.3 65.8 Z" fill="rgb(224, 126, 61)"/><path d="M157.9 14.5 L159.6 14.8 L159.6 65.2 L157.9 65.5 Z" fill="rgb(224, 125, 60)"/><path d="M159.6 14.8 L161.2 15.0 L161.2 65.0 L159.6 65.2 Z" fill="rgb(224, 124, 59)"/><path d="M161.2 15.0 L162.9 15.3 L162.9 64.7 L161.2 65.0 Z" fill="rgb(224, 123, 58)"/><path d="M162.9 15.3 L164.5 15.5 L164.5 64.5 L162.9 64.7 Z" fill="rgb(224, 122, 58)"/><path d="M164.5 15.5 L166.2 15.7 L166.2 64.3 L164.5 64.5 Z" fill="rgb(224, 121, 58)"/><path d="M166.2 15.7 L167.8 15.9 L167.8 64.1 L166.2 64.3 Z" fill="rgb(224, 121, 58)"/><path d="M167.8 15.9 L169.5 16.0 L169.5 64.0 L167.8 64.1 Z" fill="rgb(224, 120, 58)"/><path d="M169.5 16.0 L171.1 16.0 L171.1 64.0 L169.5 64.0 Z" fill="rgb(224, 120, 58)"/><path d="M171.1 16.0 L172.7 16.0 L172.7 64.0 L171.1 64.0 Z" fill="rgb(224, 120, 58)"/><path d="M172.7 16.0 L174.4 16.1 L174.4 63.9 L172.7 64.0 Z" fill="rgb(224, 120, 58)"/><path d="M174.4 16.1 L176.0 16.1 L176.0 63.9 L174.4 63.9 Z" fill="rgb(224, 120, 58)"/><path d="M176.0 16.1 L177.7 16.2 L177.7 63.8 L176.0 63.9 Z" fill="rgb(224, 120, 58)"/><path d="M177.7 16.2 L179.3 16.3 L179.3 63.7 L177.7 63.8 Z" fill="rgb(224, 121, 58)"/><path d="M179.3 16.3 L181.0 16.4 L181.0 63.6 L179.3 63.7 Z" fill="rgb(224, 121, 58)"/><path d="M181.0 16.4 L182.6 16.5 L182.6 63.5 L181.0 63.6 Z" fill="rgb(224, 122, 58)"/><path d="M182.6 16.5 L184.2 16.6 L184.2 63.4 L182.6 63.5 Z" fill="rgb(224, 123, 59)"/><path d="M184.2 16.6 L185.9 16.7 L185.9 63.3 L184.2 63.4 Z" fill="rgb(224, 124, 60)"/><path d="M185.9 16.7 L187.5 16.8 L187.5 63.2 L185.9 63.3 Z" fill="rgb(224, 125, 60)"/><path d="M187.5 16.8 L189.2 16.9 L189.2 63.1 L187.5 63.2 Z" fill="rgb(224, 127, 61)"/><path d="M189.2 16.9 L190.8 17.0 L190.8 63.0 L189.2 63.1 Z" fill="rgb(223, 128, 62)"/><path d="M190.8 17.0 L192.5 17.1 L192.5 62.9 L190.8 63.0 Z" fill="rgb(223, 128, 62)"/><path d="M192.5 17.1 L194.1 17.1 L194.1 62.9 L192.5 62.9 Z" fill="rgb(223, 129, 63)"/><path d="M194.1 17.1 L195.8 17.1 L195.8 62.9 L194.1 62.9 Z" fill="rgb(223, 130, 63)"/><path d="M195.8 17.1 L197.4 17.2 L197.4 62.8 L195.8 62.9 Z" fill="rgb(223, 130, 63)"/><path d="M197.4 17.2 L199.0 17.1 L199.0 62.9 L197.4 62.8 Z" fill="rgb(223, 130, 63)"/><path d="M199.0 17.1 L200.7 17.0 L200.7 63.0 L199.0 62.9 Z" fill="rgb(223, 131, 64)"/><path d="M200.7 17.0 L202.3 16.8 L202.3 63.2 L200.7 63.0 Z" fill="rgb(223, 132, 64)"/><path d="M202.3 16.8 L204.0 16.6 L204.0 63.4 L202.3 63.2 Z" fill="rgb(223, 133, 65)"/><path d="M204.0 16.6 L205.6 16.4 L205.6 63.6 L204.0 63.4 Z" fill="rgb(223, 134, 66)"/><path d="M205.6 16.4 L207.3 16.1 L207.3 63.9 L205.6 63.6 Z" fill="rgb(223, 136, 67)"/><path d="M207.3 16.1 L208.9 15.8 L208.9 64.2 L207.3 63.9 Z" fill="rgb(222, 138, 69)"/><path d="M208.9 15.8 L210.5 15.5 L210.5 64.5 L208.9 64.2 Z" fill="rgb(222, 141, 70)"/><path d="M210.5 15.5 L212.2 15.3 L212.2 64.7 L210.5 64.5 Z" fill="rgb(222, 143, 72)"/><path d="M212.2 15.3 L213.8 15.0 L213.8 65.0 L212.2 64.7 Z" fill="rgb(222, 145, 73)"/><path d="M213.8 15.0 L215.5 14.8 L215.5 65.2 L213.8 65.0 Z" fill="rgb(222, 147, 74)"/><path d="M215.5 14.8 L217.1 14.6 L217.1 65.4 L215.5 65.2 Z" fill="rgb(221, 149, 76)"/><path d="M217.1 14.6 L218.8 14.4 L218.8 65.6 L217.1 65.4 Z" fill="rgb(221, 150, 77)"/><path d="M218.8 14.4 L220.4 14.3 L220.4 65.7 L218.8 65.6 Z" fill="rgb(221, 152, 77)"/><path d="M220.4 14.3 L222.1 14.3 L222.1 65.7 L220.4 65.7 Z" fill="rgb(221, 152, 78)"/><path d="M222.1 14.3 L223.7 14.2 L223.7 65.8 L222.1 65.7 Z" fill="rgb(221, 153, 78)"/><path d="M223.7 14.2 L225.3 14.2 L225.3 65.8 L223.7 65.8 Z" fill="rgb(221, 153, 78)"/><path d="M225.3 14.2 L227.0 14.1 L227.0 65.9 L225.3 65.8 Z" fill="rgb(221, 154, 79)"/><path d="M227.0 14.1 L228.6 14.0 L228.6 66.0 L227.0 65.9 Z" fill="rgb(221, 156, 80)"/><path d="M228.6 14.0 L230.3 13.9 L230.3 66.1 L228.6 66.0 Z" fill="rgb(220, 159, 82)"/><path d="M230.3 13.9 L231.9 13.8 L231.9 66.2 L230.3 66.1 Z" fill="rgb(220, 161, 84)"/><path d="M231.9 13.8 L233.6 13.7 L233.6 66.3 L231.9 66.2 Z" fill="rgb(220, 165, 86)"/><path d="M233.6 13.7 L235.2 13.6 L235.2 66.4 L233.6 66.3 Z" fill="rgb(220, 168, 88)"/><path d="M235.2 13.6 L236.8 13.5 L236.8 66.5 L235.2 66.4 Z" fill="rgb(219, 171, 90)"/><path d="M236.8 13.5 L238.5 13.3 L238.5 66.7 L236.8 66.5 Z" fill="rgb(219, 175, 93)"/><path d="M238.5 13.3 L240.1 13.2 L240.1 66.8 L238.5 66.7 Z" fill="rgb(219, 178, 95)"/><path d="M240.1 13.2 L241.8 13.1 L241.8 66.9 L240.1 66.8 Z" fill="rgb(218, 181, 97)"/><path d="M241.8 13.1 L243.4 13.1 L243.4 66.9 L241.8 66.9 Z" fill="rgb(218, 183, 98)"/><path d="M243.4 13.1 L245.1 13.0 L245.1 67.0 L243.4 66.9 Z" fill="rgb(218, 185, 100)"/><path d="M245.1 13.0 L246.7 13.0 L246.7 67.0 L245.1 67.0 Z" fill="rgb(218, 187, 101)"/><path d="M246.7 13.0 L248.4 13.0 L248.4 67.0 L246.7 67.0 Z" fill="rgb(218, 187, 101)"/><path d="M248.4 13.0 L250.0 13.2 L250.0 66.8 L248.4 67.0 Z" fill="rgb(218, 188, 101)"/><path d="M250.0 13.2 L251.6 13.5 L251.6 66.5 L250.0 66.8 Z" fill="rgb(218, 188, 102)"/><path d="M251.6 13.5 L253.3 13.9 L253.3 66.1 L251.6 66.5 Z" fill="rgb(217, 190, 103)"/><path d="M253.3 13.9 L254.9 14.3 L254.9 65.7 L253.3 66.1 Z" fill="rgb(217, 192, 104)"/><path d="M254.9 14.3 L256.6 14.8 L256.6 65.2 L254.9 65.7 Z" fill="rgb(217, 194, 105)"/><path d="M256.6 14.8 L258.2 15.4 L258.2 64.6 L256.6 65.2 Z" fill="rgb(213, 194, 108)"/><path d="M258.2 15.4 L259.9 16.0 L259.9 64.0 L258.2 64.6 Z" fill="rgb(208, 194, 110)"/><path d="M259.9 16.0 L261.5 16.5 L261.5 63.5 L259.9 64.0 Z" fill="rgb(202, 193, 112)"/><path d="M261.5 16.5 L263.2 17.1 L263.2 62.9 L261.5 63.5 Z" fill="rgb(197, 192, 115)"/><path d="M263.2 17.1 L264.8 17.6 L264.8 62.4 L263.2 62.9 Z" fill="rgb(191, 191, 117)"/><path d="M264.8 17.6 L266.4 18.0 L266.4 62.0 L264.8 62.4 Z" fill="rgb(186, 191, 119)"/><path d="M266.4 18.0 L268.1 18.4 L268.1 61.6 L266.4 62.0 Z" fill="rgb(182, 190, 121)"/><path d="M268.1 18.4 L269.7 18.6 L269.7 61.4 L268.1 61.6 Z" fill="rgb(178, 189, 123)"/><path d="M269.7 18.6 L271.4 18.8 L271.4 61.2 L269.7 61.4 Z" fill="rgb(176, 189, 124)"/><path d="M271.4 18.8 L273.0 18.8 L273.0 61.2 L271.4 61.2 Z" fill="rgb(174, 189, 124)"/><path d="M273.0 18.8 L274.7 18.7 L274.7 61.3 L273.0 61.2 Z" fill="rgb(174, 189, 125)"/><path d="M274.7 18.7 L276.3 18.5 L276.3 61.5 L274.7 61.3 Z" fill="rgb(173, 189, 125)"/><path d="M276.3 18.5 L277.9 18.3 L277.9 61.7 L276.3 61.5 Z" fill="rgb(171, 188, 126)"/><path d="M277.9 18.3 L279.6 18.1 L279.6 61.9 L277.9 61.7 Z" fill="rgb(168, 188, 127)"/><path d="M279.6 18.1 L281.2 17.8 L281.2 62.2 L279.6 61.9 Z" fill="rgb(165, 187, 129)"/><path d="M281.2 17.8 L282.9 17.5 L282.9 62.5 L281.2 62.2 Z" fill="rgb(161, 187, 130)"/><path d="M282.9 17.5 L284.5 17.2 L284.5 62.8 L282.9 62.5 Z" fill="rgb(156, 186, 132)"/><path d="M284.5 17.2 L286.2 16.8 L286.2 63.2 L284.5 62.8 Z" fill="rgb(152, 185, 134)"/><path d="M286.2 16.8 L287.8 16.5 L287.8 63.5 L286.2 63.2 Z" fill="rgb(148, 185, 136)"/><path d="M287.8 16.5 L289.5 16.2 L289.5 63.8 L287.8 63.5 Z" fill="rgb(143, 184, 138)"/><path d="M289.5 16.2 L291.1 16.0 L291.1 64.0 L289.5 63.8 Z" fill="rgb(139, 184, 140)"/><path d="M291.1 16.0 L292.7 15.7 L292.7 64.3 L291.1 64.0 Z" fill="rgb(136, 183, 141)"/><path d="M292.7 15.7 L294.4 15.6 L294.4 64.4 L292.7 64.3 Z" fill="rgb(133, 183, 142)"/><path d="M294.4 15.6 L296.0 15.5 L296.0 64.5 L294.4 64.4 Z" fill="rgb(130, 182, 143)"/><path d="M296.0 15.5 L297.7 15.4 L297.7 64.6 L296.0 64.5 Z" fill="rgb(129, 182, 144)"/><path d="M297.7 15.4 L299.3 15.4 L299.3 64.6 L297.7 64.6 Z" fill="rgb(129, 182, 144)"/><path d="M299.3 15.4 L301.0 15.4 L301.0 64.6 L299.3 64.6 Z" fill="rgb(128, 182, 144)"/><path d="M301.0 15.4 L302.6 15.4 L302.6 64.6 L301.0 64.6 Z" fill="rgb(128, 182, 144)"/><path d="M302.6 15.4 L304.2 15.3 L304.2 64.7 L302.6 64.6 Z" fill="rgb(127, 182, 145)"/><path d="M304.2 15.3 L305.9 15.3 L305.9 64.7 L304.2 64.7 Z" fill="rgb(126, 182, 145)"/><path d="M305.9 15.3 L307.5 15.2 L307.5 64.8 L305.9 64.7 Z" fill="rgb(124, 181, 146)"/><path d="M307.5 15.2 L309.2 15.1 L309.2 64.9 L307.5 64.8 Z" fill="rgb(123, 181, 147)"/><path d="M309.2 15.1 L310.0 15.1 L310.0 64.9 L309.2 64.9 Z" fill="rgb(121, 181, 147)"/>
  <path d="M10.0 15.1 L11.6 15.0 L13.3 15.0 L14.9 14.9 L16.6 14.9 L18.2 14.8 L19.9 14.8 L21.5 14.8 L23.2 14.8 L24.8 14.8 L26.4 14.9 L28.1 15.1 L29.7 15.3 L31.4 15.5 L33.0 15.7 L34.7 16.0 L36.3 16.2 L37.9 16.5 L39.6 16.7 L41.2 16.9 L42.9 17.0 L44.5 17.2 L46.2 17.2 L47.8 17.2 L49.5 17.3 L51.1 17.3 L52.7 17.4 L54.4 17.4 L56.0 17.5 L57.7 17.6 L59.3 17.7 L61.0 17.8 L62.6 17.9 L64.2 18.0 L65.9 18.1 L67.5 18.1 L69.2 18.2 L70.8 18.2 L72.5 18.2 L74.1 18.2 L75.8 18.3 L77.4 18.3 L79.0 18.4 L80.7 18.5 L82.3 18.6 L84.0 18.6 L85.6 18.7 L87.3 18.8 L88.9 18.9 L90.5 19.0 L92.2 19.0 L93.8 19.1 L95.5 19.1 L97.1 19.1 L98.8 19.1 L100.4 19.1 L102.1 19.1 L103.7 19.1 L105.3 19.1 L107.0 19.2 L108.6 19.2 L110.3 19.2 L111.9 19.2 L113.6 19.3 L115.2 19.3 L116.8 19.3 L118.5 19.3 L120.1 19.3 L121.8 19.3 L123.4 19.2 L125.1 19.0 L126.7 18.6 L128.4 18.2 L130.0 17.7 L131.6 17.1 L133.3 16.5 L134.9 15.9 L136.6 15.4 L138.2 14.8 L139.9 14.3 L141.5 13.9 L143.2 13.6 L144.8 13.4 L146.4 13.3 L148.1 13.3 L149.7 13.4 L151.4 13.6 L153.0 13.8 L154.7 14.0 L156.3 14.2 L157.9 14.5 L159.6 14.8 L161.2 15.0 L162.9 15.3 L164.5 15.5 L166.2 15.7 L167.8 15.9 L169.5 16.0 L171.1 16.0 L172.7 16.0 L174.4 16.1 L176.0 16.1 L177.7 16.2 L179.3 16.3 L181.0 16.4 L182.6 16.5 L184.2 16.6 L185.9 16.7 L187.5 16.8 L189.2 16.9 L190.8 17.0 L192.5 17.1 L194.1 17.1 L195.8 17.1 L197.4 17.2 L199.0 17.1 L200.7 17.0 L202.3 16.8 L204.0 16.6 L205.6 16.4 L207.3 16.1 L208.9 15.8 L210.5 15.5 L212.2 15.3 L213.8 15.0 L215.5 14.8 L217.1 14.6 L218.8 14.4 L220.4 14.3 L222.1 14.3 L223.7 14.2 L225.3 14.2 L227.0 14.1 L228.6 14.0 L230.3 13.9 L231.9 13.8 L233.6 13.7 L235.2 13.6 L236.8 13.5 L238.5 13.3 L240.1 13.2 L241.8 13.1 L243.4 13.1 L245.1 13.0 L246.7 13.0 L248.4 13.0 L250.0 13.2 L251.6 13.5 L253.3 13.9 L254.9 14.3 L256.6 14.8 L258.2 15.4 L259.9 16.0 L261.5 16.5 L263.2 17.1 L264.8 17.6 L266.4 18.0 L268.1 18.4 L269.7 18.6 L271.4 18.8 L273.0 18.8 L274.7 18.7 L276.3 18.5 L277.9 18.3 L279.6 18.1 L281.2 17.8 L282.9 17.5 L284.5 17.2 L286.2 16.8 L287.8 16.5 L289.5 16.2 L291.1 16.0 L292.7 15.7 L294.4 15.6 L296.0 15.5 L297.7 15.4 L299.3 15.4 L301.0 15.4 L302.6 15.4 L304.2 15.3 L305.9 15.3 L307.5 15.2 L309.2 15.1 L309.2 64.9 L307.5 64.8 L305.9 64.7 L304.2 64.7 L302.6 64.6 L301.0 64.6 L299.3 64.6 L297.7 64.6 L296.0 64.5 L294.4 64.4 L292.7 64.3 L291.1 64.0 L289.5 63.8 L287.8 63.5 L286.2 63.2 L284.5 62.8 L282.9 62.5 L281.2 62.2 L279.6 61.9 L277.9 61.7 L276.3 61.5 L274.7 61.3 L273.0 61.2 L271.4 61.2 L269.7 61.4 L268.1 61.6 L266.4 62.0 L264.8 62.4 L263.2 62.9 L261.5 63.5 L259.9 64.0 L258.2 64.6 L256.6 65.2 L254.9 65.7 L253.3 66.1 L251.6 66.5 L250.0 66.8 L248.4 67.0 L246.7 67.0 L245.1 67.0 L243.4 66.9 L241.8 66.9 L240.1 66.8 L238.5 66.7 L236.8 66.5 L235.2 66.4 L233.6 66.3 L231.9 66.2 L230.3 66.1 L228.6 66.0 L227.0 65.9 L225.3 65.8 L223.7 65.8 L222.1 65.7 L220.4 65.7 L218.8 65.6 L217.1 65.4 L215.5 65.2 L213.8 65.0 L212.2 64.7 L210.5 64.5 L208.9 64.2 L207.3 63.9 L205.6 63.6 L204.0 63.4 L202.3 63.2 L200.7 63.0 L199.0 62.9 L197.4 62.8 L195.8 62.9 L194.1 62.9 L192.5 62.9 L190.8 63.0 L189.2 63.1 L187.5 63.2 L185.9 63.3 L184.2 63.4 L182.6 63.5 L181.0 63.6 L179.3 63.7 L177.7 63.8 L176.0 63.9 L174.4 63.9 L172.7 64.0 L171.1 64.0 L169.5 64.0 L167.8 64.1 L166.2 64.3 L164.5 64.5 L162.9 64.7 L161.2 65.0 L159.6 65.2 L157.9 65.5 L156.3 65.8 L154.7 66.0 L153.0 66.2 L151.4 66.4 L149.7 66.6 L148.1 66.7 L146.4 66.7 L144.8 66.6 L143.2 66.4 L141.5 66.1 L139.9 65.7 L138.2 65.2 L136.6 64.6 L134.9 64.1 L133.3 63.5 L131.6 62.9 L130.0 62.3 L128.4 61.8 L126.7 61.4 L125.1 61.0 L123.4 60.8 L121.8 60.7 L120.1 60.7 L118.5 60.7 L116.8 60.7 L115.2 60.7 L113.6 60.7 L111.9 60.8 L110.3 60.8 L108.6 60.8 L107.0 60.8 L105.3 60.9 L103.7 60.9 L102.1 60.9 L100.4 60.9 L98.8 60.9 L97.1 60.9 L95.5 60.9 L93.8 60.9 L92.2 61.0 L90.5 61.0 L88.9 61.1 L87.3 61.2 L85.6 61.3 L84.0 61.4 L82.3 61.4 L80.7 61.5 L79.0 61.6 L77.4 61.7 L75.8 61.7 L74.1 61.8 L72.5 61.8 L70.8 61.8 L69.2 61.8 L67.5 61.9 L65.9 61.9 L64.2 62.0 L62.6 62.1 L61.0 62.2 L59.3 62.3 L57.7 62.4 L56.0 62.5 L54.4 62.6 L52.7 62.6 L51.1 62.7 L49.5 62.7 L47.8 62.8 L46.2 62.8 L44.5 62.8 L42.9 63.0 L41.2 63.1 L39.6 63.3 L37.9 63.5 L36.3 63.8 L34.7 64.0 L33.0 64.3 L31.4 64.5 L29.7 64.7 L28.1 64.9 L26.4 65.1 L24.8 65.2 L23.2 65.2 L21.5 65.2 L19.9 65.2 L18.2 65.2 L16.6 65.1 L14.9 65.1 L13.3 65.0 L11.6 65.0 L10.0 64.9 Z" fill="none" stroke="#1a1a1a" stroke-opacity="0.22" stroke-width="0.8" stroke-linejoin="round"/>
</svg>
